<svg xmlns="http://www.w3.org/2000/svg" width="480" height="320" viewBox="0 0 480 320" role="img" aria-label="Jungle Warfare card art">
  <defs>
    <linearGradient id="bg" x1="0" x2="1" y1="0" y2="1">
      <stop offset="0" stop-color="#244634"/>
      <stop offset="0.52" stop-color="#6d7447"/>
      <stop offset="1" stop-color="#101812"/>
    </linearGradient>
    <radialGradient id="lamp" cx="38%" cy="18%" r="78%">
      <stop offset="0" stop-color="#d2b16d" stop-opacity="0.68"/>
      <stop offset="0.46" stop-color="#d2b16d" stop-opacity="0.16"/>
      <stop offset="1" stop-color="#d2b16d" stop-opacity="0"/>
    </radialGradient>
    <linearGradient id="ground" x1="0" x2="1" y1="0" y2="0">
      <stop offset="0" stop-color="#070a0a" stop-opacity="0.82"/>
      <stop offset="0.5" stop-color="#101812" stop-opacity="0.58"/>
      <stop offset="1" stop-color="#070a0a" stop-opacity="0.88"/>
    </linearGradient>
    <filter id="grain">
      <feTurbulence baseFrequency="0.72" numOctaves="2" seed="6" type="fractalNoise"/>
      <feColorMatrix type="saturate" values="0"/>
      <feComponentTransfer>
        <feFuncA type="table" tableValues="0 0.18"/>
      </feComponentTransfer>
      <feBlend mode="overlay" in2="SourceGraphic"/>
    </filter>
    <clipPath id="round">
      <rect width="480" height="320" rx="18"/>
    </clipPath>
  </defs>
  <g clip-path="url(#round)">
    <rect width="480" height="320" fill="url(#bg)"/>
    <rect width="480" height="320" fill="url(#lamp)"/>
    <path d="M0 190 C80 180 132 212 224 196 S370 174 480 140 V320 H0 Z" fill="#0a100c" opacity="0.34"/>
    <path d="M0 238 C102 205 146 246 232 218 S380 194 480 172 V320 H0 Z" fill="url(#ground)"/>
    <path d="M34 78 C54 134 48 202 26 284 M96 58 C120 140 108 214 72 306 M410 72 C382 150 386 224 430 302" stroke="#0a100c" stroke-width="18" stroke-linecap="round" opacity="0.42"/>
    <path d="M24 86 L74 116 L44 134 M84 70 L134 104 L98 126 M404 84 L358 118 L396 134" fill="none" stroke="#d2b16d" stroke-width="7" stroke-linecap="round" stroke-opacity="0.18"/>
    <path d="M52 78 H426 M86 112 H396 M72 146 H412 M104 180 H370 M128 214 H350" stroke="#d2b16d" stroke-width="2" stroke-opacity="0.12"/>
    <g fill="#0a100c" stroke="#d2b16d" stroke-opacity="0.3" stroke-width="5" stroke-linecap="round" stroke-linejoin="round">
    <path d="M260 118 L286 170 L344 174 L296 208 L308 266 L260 228 L210 266 L226 208 L172 174 L234 168 Z" fill="#d7bd72" fill-opacity="0.32"/>
    <path d="M54 250 C126 206 168 218 226 170 S344 108 432 92" fill="none" stroke-width="9" stroke-opacity="0.34"/>
    <path d="M392 80 L432 92 L406 126" fill="none" stroke-width="9" stroke-opacity="0.34"/>
    <circle cx="260" cy="188" r="42" fill="none" stroke-width="8"/>
  </g>
    <circle cx="378" cy="138" r="2" fill="#d2b16d" opacity="0.1"/>
    <circle cx="358" cy="122" r="3" fill="#d2b16d" opacity="0.14"/>
    <circle cx="338" cy="106" r="4" fill="#d2b16d" opacity="0.18"/>
    <circle cx="318" cy="90" r="5" fill="#d2b16d" opacity="0.22"/>
    <circle cx="298" cy="74" r="2" fill="#d2b16d" opacity="0.1"/>
    <circle cx="278" cy="58" r="3" fill="#d2b16d" opacity="0.14"/>
    <circle cx="258" cy="42" r="4" fill="#d2b16d" opacity="0.18"/>
    <circle cx="238" cy="202" r="5" fill="#d2b16d" opacity="0.22"/>
    <circle cx="218" cy="186" r="2" fill="#d2b16d" opacity="0.1"/>
    <rect width="480" height="320" fill="#000" opacity="0.08" filter="url(#grain)"/>
    <path d="M22 292 C106 252 162 290 236 252 S368 240 458 206" fill="none" stroke="#d2b16d" stroke-width="7" stroke-linecap="round" stroke-opacity="0.12"/>
  </g>
</svg>
