<svg xmlns="http://www.w3.org/2000/svg" width="480" height="320" viewBox="0 0 480 320" role="img" aria-label="Kokoda Track Infantry card art">
  <defs>
    <linearGradient id="bg" x1="0" x2="1" y1="0" y2="1">
      <stop offset="0" stop-color="#244634"/>
      <stop offset="0.52" stop-color="#6d7447"/>
      <stop offset="1" stop-color="#101812"/>
    </linearGradient>
    <radialGradient id="lamp" cx="31%" cy="19%" r="78%">
      <stop offset="0" stop-color="#d2b16d" stop-opacity="0.68"/>
      <stop offset="0.46" stop-color="#d2b16d" stop-opacity="0.16"/>
      <stop offset="1" stop-color="#d2b16d" stop-opacity="0"/>
    </radialGradient>
    <linearGradient id="ground" x1="0" x2="1" y1="0" y2="0">
      <stop offset="0" stop-color="#070a0a" stop-opacity="0.82"/>
      <stop offset="0.5" stop-color="#101812" stop-opacity="0.58"/>
      <stop offset="1" stop-color="#070a0a" stop-opacity="0.88"/>
    </linearGradient>
    <filter id="grain">
      <feTurbulence baseFrequency="0.72" numOctaves="2" seed="81" type="fractalNoise"/>
      <feColorMatrix type="saturate" values="0"/>
      <feComponentTransfer>
        <feFuncA type="table" tableValues="0 0.18"/>
      </feComponentTransfer>
      <feBlend mode="overlay" in2="SourceGraphic"/>
    </filter>
    <clipPath id="round">
      <rect width="480" height="320" rx="18"/>
    </clipPath>
  </defs>
  <g clip-path="url(#round)">
    <rect width="480" height="320" fill="url(#bg)"/>
    <rect width="480" height="320" fill="url(#lamp)"/>
    <path d="M0 215 C80 185 132 209 224 205 S370 183 480 133 V320 H0 Z" fill="#0a100c" opacity="0.34"/>
    <path d="M0 238 C102 205 146 246 232 218 S380 194 480 172 V320 H0 Z" fill="url(#ground)"/>
    <path d="M34 78 C54 134 48 202 26 284 M96 58 C120 140 108 214 72 306 M410 72 C382 150 386 224 430 302" stroke="#0a100c" stroke-width="18" stroke-linecap="round" opacity="0.42"/>
    <path d="M24 86 L74 116 L44 134 M84 70 L134 104 L98 126 M404 84 L358 118 L396 134" fill="none" stroke="#d2b16d" stroke-width="7" stroke-linecap="round" stroke-opacity="0.18"/>
    <path d="M52 78 H426 M86 112 H396 M72 146 H412 M104 180 H370 M128 214 H350" stroke="#d2b16d" stroke-width="2" stroke-opacity="0.12"/>
    <g fill="#0a100c" stroke="#d2b16d" stroke-opacity="0.25" stroke-width="5" stroke-linecap="round" stroke-linejoin="round">
    <circle cx="159" cy="132" r="18"/>
    <path d="M135 128 H183" fill="none"/>
    <path d="M159 150 L141 214 M159 150 L183 212" fill="none"/>
    <path d="M151 176 L231 144" fill="none" stroke-width="8"/>
    <circle cx="215" cy="116" r="18"/>
    <path d="M191 112 H239" fill="none"/>
    <path d="M215 134 L197 198 M215 134 L239 196" fill="none"/>
    <path d="M207 160 L287 128" fill="none" stroke-width="8"/>
    <circle cx="328.5" cy="142" r="18"/>
    <path d="M304.5 138 H352.5" fill="none"/>
    <path d="M328.5 160 L310.5 224 M328.5 160 L352.5 222" fill="none"/>
    <path d="M320.5 186 L400.5 154" fill="none" stroke-width="8"/>
    <path d="M104 238 C164 210 218 242 278 212 S374 200 430 226" fill="none" stroke="#d2b16d" stroke-width="5" stroke-opacity="0.16"/>
  </g>
    <circle cx="123" cy="51" r="3" fill="#d2b16d" opacity="0.1"/>
    <circle cx="282" cy="88" r="4" fill="#d2b16d" opacity="0.14"/>
    <circle cx="45" cy="125" r="5" fill="#d2b16d" opacity="0.18"/>
    <circle cx="204" cy="162" r="2" fill="#d2b16d" opacity="0.22"/>
    <circle cx="363" cy="199" r="3" fill="#d2b16d" opacity="0.1"/>
    <circle cx="126" cy="60" r="4" fill="#d2b16d" opacity="0.14"/>
    <circle cx="285" cy="97" r="5" fill="#d2b16d" opacity="0.18"/>
    <circle cx="48" cy="134" r="2" fill="#d2b16d" opacity="0.22"/>
    <circle cx="207" cy="171" r="3" fill="#d2b16d" opacity="0.1"/>
    <rect width="480" height="320" fill="#000" opacity="0.08" filter="url(#grain)"/>
    <path d="M22 292 C106 252 162 290 236 252 S368 240 458 206" fill="none" stroke="#d2b16d" stroke-width="7" stroke-linecap="round" stroke-opacity="0.12"/>
  </g>
</svg>
