<svg xmlns="http://www.w3.org/2000/svg" width="480" height="320" viewBox="0 0 480 320" role="img" aria-label="Rats of Tobruk card art">
  <defs>
    <linearGradient id="bg" x1="0" x2="1" y1="0" y2="1">
      <stop offset="0" stop-color="#244634"/>
      <stop offset="0.52" stop-color="#6d7447"/>
      <stop offset="1" stop-color="#101812"/>
    </linearGradient>
    <radialGradient id="lamp" cx="58%" cy="34%" r="78%">
      <stop offset="0" stop-color="#d2b16d" stop-opacity="0.68"/>
      <stop offset="0.46" stop-color="#d2b16d" stop-opacity="0.16"/>
      <stop offset="1" stop-color="#d2b16d" stop-opacity="0"/>
    </radialGradient>
    <linearGradient id="ground" x1="0" x2="1" y1="0" y2="0">
      <stop offset="0" stop-color="#070a0a" stop-opacity="0.82"/>
      <stop offset="0.5" stop-color="#101812" stop-opacity="0.58"/>
      <stop offset="1" stop-color="#070a0a" stop-opacity="0.88"/>
    </linearGradient>
    <filter id="grain">
      <feTurbulence baseFrequency="0.72" numOctaves="2" seed="34" type="fractalNoise"/>
      <feColorMatrix type="saturate" values="0"/>
      <feComponentTransfer>
        <feFuncA type="table" tableValues="0 0.18"/>
      </feComponentTransfer>
      <feBlend mode="overlay" in2="SourceGraphic"/>
    </filter>
    <clipPath id="round">
      <rect width="480" height="320" rx="18"/>
    </clipPath>
  </defs>
  <g clip-path="url(#round)">
    <rect width="480" height="320" fill="url(#bg)"/>
    <rect width="480" height="320" fill="url(#lamp)"/>
    <path d="M0 210 C80 158 132 202 224 186 S370 156 480 160 V320 H0 Z" fill="#0a100c" opacity="0.34"/>
    <path d="M0 238 C102 205 146 246 232 218 S380 194 480 172 V320 H0 Z" fill="url(#ground)"/>
    <path d="M0 226 C80 196 150 224 230 206 S384 182 480 196 V320 H0 Z" fill="#d7bd72" opacity="0.24"/>
    <path d="M60 244 C130 226 188 250 256 232 S364 214 444 230" fill="none" stroke="#d2b16d" stroke-width="6" stroke-opacity="0.16"/>
    <path d="M52 78 H426 M86 112 H396 M72 146 H412 M104 180 H370 M128 214 H350" stroke="#d2b16d" stroke-width="2" stroke-opacity="0.12"/>
    <g fill="#0a100c" stroke="#d2b16d" stroke-opacity="0.25" stroke-width="5" stroke-linecap="round" stroke-linejoin="round">
    <circle cx="142" cy="132" r="18"/>
    <path d="M118 128 H166" fill="none"/>
    <path d="M142 150 L124 214 M142 150 L166 212" fill="none"/>
    <path d="M134 176 L214 144" fill="none" stroke-width="8"/>
    <circle cx="232" cy="116" r="18"/>
    <path d="M208 112 H256" fill="none"/>
    <path d="M232 134 L214 198 M232 134 L256 196" fill="none"/>
    <path d="M224 160 L304 128" fill="none" stroke-width="8"/>
    <circle cx="320" cy="142" r="18"/>
    <path d="M296 138 H344" fill="none"/>
    <path d="M320 160 L302 224 M320 160 L344 222" fill="none"/>
    <path d="M312 186 L392 154" fill="none" stroke-width="8"/>
    <path d="M104 238 C164 210 218 242 278 212 S374 200 430 226" fill="none" stroke="#d2b16d" stroke-width="5" stroke-opacity="0.16"/>
  </g>
    <circle cx="42" cy="174" r="2" fill="#d2b16d" opacity="0.1"/>
    <circle cx="42" cy="130" r="3" fill="#d2b16d" opacity="0.14"/>
    <circle cx="42" cy="86" r="4" fill="#d2b16d" opacity="0.18"/>
    <circle cx="42" cy="42" r="5" fill="#d2b16d" opacity="0.22"/>
    <circle cx="42" cy="174" r="2" fill="#d2b16d" opacity="0.1"/>
    <circle cx="42" cy="130" r="3" fill="#d2b16d" opacity="0.14"/>
    <circle cx="42" cy="86" r="4" fill="#d2b16d" opacity="0.18"/>
    <circle cx="42" cy="42" r="5" fill="#d2b16d" opacity="0.22"/>
    <circle cx="42" cy="174" r="2" fill="#d2b16d" opacity="0.1"/>
    <rect width="480" height="320" fill="#000" opacity="0.08" filter="url(#grain)"/>
    <path d="M22 292 C106 252 162 290 236 252 S368 240 458 206" fill="none" stroke="#d2b16d" stroke-width="7" stroke-linecap="round" stroke-opacity="0.12"/>
  </g>
</svg>
