<svg xmlns="http://www.w3.org/2000/svg" width="480" height="320" viewBox="0 0 480 320" role="img" aria-label="Supply Line card art">
  <defs>
    <linearGradient id="bg" x1="0" x2="1" y1="0" y2="1">
      <stop offset="0" stop-color="#28332d"/>
      <stop offset="0.52" stop-color="#6f6743"/>
      <stop offset="1" stop-color="#111817"/>
    </linearGradient>
    <radialGradient id="lamp" cx="27%" cy="19%" r="78%">
      <stop offset="0" stop-color="#ead48a" stop-opacity="0.68"/>
      <stop offset="0.46" stop-color="#ead48a" stop-opacity="0.16"/>
      <stop offset="1" stop-color="#ead48a" stop-opacity="0"/>
    </radialGradient>
    <linearGradient id="ground" x1="0" x2="1" y1="0" y2="0">
      <stop offset="0" stop-color="#070a0a" stop-opacity="0.82"/>
      <stop offset="0.5" stop-color="#111817" stop-opacity="0.58"/>
      <stop offset="1" stop-color="#070a0a" stop-opacity="0.88"/>
    </linearGradient>
    <filter id="grain">
      <feTurbulence baseFrequency="0.72" numOctaves="2" seed="61" type="fractalNoise"/>
      <feColorMatrix type="saturate" values="0"/>
      <feComponentTransfer>
        <feFuncA type="table" tableValues="0 0.18"/>
      </feComponentTransfer>
      <feBlend mode="overlay" in2="SourceGraphic"/>
    </filter>
    <clipPath id="round">
      <rect width="480" height="320" rx="18"/>
    </clipPath>
  </defs>
  <g clip-path="url(#round)">
    <rect width="480" height="320" fill="url(#bg)"/>
    <rect width="480" height="320" fill="url(#lamp)"/>
    <path d="M0 195 C80 187 132 189 224 201 S370 151 480 129 V320 H0 Z" fill="#0d1112" opacity="0.34"/>
    <path d="M0 238 C102 205 146 246 232 218 S380 194 480 172 V320 H0 Z" fill="url(#ground)"/>
    <path d="M42 230 L82 198 L122 238 L178 190 L244 226 L316 176 L418 230" fill="none" stroke="#0d1112" stroke-width="15" stroke-linejoin="round" stroke-opacity="0.42"/>
  <path d="M42 226 L82 194 L122 234 L178 186 L244 222 L316 172 L418 226" fill="none" stroke="#ead48a" stroke-width="4" stroke-linejoin="round" stroke-opacity="0.14"/>
    <path d="M52 78 H426 M86 112 H396 M72 146 H412 M104 180 H370 M128 214 H350" stroke="#ead48a" stroke-width="2" stroke-opacity="0.12"/>
    <g fill="#0d1112" stroke="#ead48a" stroke-opacity="0.28" stroke-width="5" stroke-linejoin="round">
    <rect x="92" y="191" width="116" height="54" rx="6" opacity="0.78"/>
    <path d="M208 205 H252 L278 245 H208 Z" opacity="0.78"/>
    <rect x="306" y="203" width="82" height="42" rx="5" opacity="0.6"/>
    <circle cx="122" cy="251" r="14"/><circle cx="190" cy="251" r="14"/><circle cx="246" cy="251" r="14"/><circle cx="330" cy="251" r="12"/><circle cx="376" cy="251" r="12"/>
    <path d="M68 273 H414" fill="none" stroke-width="10" stroke-linecap="round" opacity="0.42"/>
  </g>
    <circle cx="327" cy="191" r="3" fill="#ead48a" opacity="0.1"/>
    <circle cx="422" cy="80" r="4" fill="#ead48a" opacity="0.14"/>
    <circle cx="121" cy="145" r="5" fill="#ead48a" opacity="0.18"/>
    <circle cx="216" cy="210" r="2" fill="#ead48a" opacity="0.22"/>
    <circle cx="311" cy="99" r="3" fill="#ead48a" opacity="0.1"/>
    <circle cx="406" cy="164" r="4" fill="#ead48a" opacity="0.14"/>
    <circle cx="105" cy="53" r="5" fill="#ead48a" opacity="0.18"/>
    <circle cx="200" cy="118" r="2" fill="#ead48a" opacity="0.22"/>
    <circle cx="295" cy="183" r="3" fill="#ead48a" opacity="0.1"/>
    <rect width="480" height="320" fill="#000" opacity="0.08" filter="url(#grain)"/>
    <path d="M22 292 C106 252 162 290 236 252 S368 240 458 206" fill="none" stroke="#ead48a" stroke-width="7" stroke-linecap="round" stroke-opacity="0.12"/>
  </g>
</svg>
