<svg xmlns="http://www.w3.org/2000/svg" width="480" height="320" viewBox="0 0 480 320" role="img" aria-label="Field Hospital card art">
  <defs>
    <linearGradient id="bg" x1="0" x2="1" y1="0" y2="1">
      <stop offset="0" stop-color="#28332d"/>
      <stop offset="0.52" stop-color="#6f6743"/>
      <stop offset="1" stop-color="#111817"/>
    </linearGradient>
    <radialGradient id="lamp" cx="52%" cy="24%" r="78%">
      <stop offset="0" stop-color="#ead48a" stop-opacity="0.68"/>
      <stop offset="0.46" stop-color="#ead48a" stop-opacity="0.16"/>
      <stop offset="1" stop-color="#ead48a" stop-opacity="0"/>
    </radialGradient>
    <linearGradient id="ground" x1="0" x2="1" y1="0" y2="0">
      <stop offset="0" stop-color="#070a0a" stop-opacity="0.82"/>
      <stop offset="0.5" stop-color="#111817" stop-opacity="0.58"/>
      <stop offset="1" stop-color="#070a0a" stop-opacity="0.88"/>
    </linearGradient>
    <filter id="grain">
      <feTurbulence baseFrequency="0.72" numOctaves="2" seed="74" type="fractalNoise"/>
      <feColorMatrix type="saturate" values="0"/>
      <feComponentTransfer>
        <feFuncA type="table" tableValues="0 0.18"/>
      </feComponentTransfer>
      <feBlend mode="overlay" in2="SourceGraphic"/>
    </filter>
    <clipPath id="round">
      <rect width="480" height="320" rx="18"/>
    </clipPath>
  </defs>
  <g clip-path="url(#round)">
    <rect width="480" height="320" fill="url(#bg)"/>
    <rect width="480" height="320" fill="url(#lamp)"/>
    <path d="M0 204 C80 182 132 198 224 186 S370 150 480 154 V320 H0 Z" fill="#0d1112" opacity="0.34"/>
    <path d="M0 238 C102 205 146 246 232 218 S380 194 480 172 V320 H0 Z" fill="url(#ground)"/>
    <path d="M42 230 L82 198 L122 238 L178 190 L244 226 L316 176 L418 230" fill="none" stroke="#0d1112" stroke-width="15" stroke-linejoin="round" stroke-opacity="0.42"/>
  <path d="M42 226 L82 194 L122 234 L178 186 L244 222 L316 172 L418 226" fill="none" stroke="#ead48a" stroke-width="4" stroke-linejoin="round" stroke-opacity="0.14"/>
    <path d="M52 78 H426 M86 112 H396 M72 146 H412 M104 180 H370 M128 214 H350" stroke="#ead48a" stroke-width="2" stroke-opacity="0.12"/>
    <g fill="#0d1112" stroke="#ead48a" stroke-opacity="0.3" stroke-width="5" stroke-linecap="round" stroke-linejoin="round">
    <path d="M238 118 L264 170 L322 174 L274 208 L286 266 L238 228 L188 266 L204 208 L150 174 L212 168 Z" fill="#d5b76f" fill-opacity="0.32"/>
    <path d="M54 250 C126 206 168 218 226 170 S344 108 432 92" fill="none" stroke-width="9" stroke-opacity="0.34"/>
    <path d="M392 80 L432 92 L406 126" fill="none" stroke-width="9" stroke-opacity="0.34"/>
    <circle cx="238" cy="188" r="42" fill="none" stroke-width="8"/>
  </g>
    <circle cx="96" cy="136" r="4" fill="#ead48a" opacity="0.1"/>
    <circle cx="114" cy="190" r="5" fill="#ead48a" opacity="0.14"/>
    <circle cx="132" cy="68" r="2" fill="#ead48a" opacity="0.18"/>
    <circle cx="150" cy="122" r="3" fill="#ead48a" opacity="0.22"/>
    <circle cx="168" cy="176" r="4" fill="#ead48a" opacity="0.1"/>
    <circle cx="186" cy="54" r="5" fill="#ead48a" opacity="0.14"/>
    <circle cx="204" cy="108" r="2" fill="#ead48a" opacity="0.18"/>
    <circle cx="222" cy="162" r="3" fill="#ead48a" opacity="0.22"/>
    <circle cx="240" cy="216" r="4" fill="#ead48a" opacity="0.1"/>
    <rect width="480" height="320" fill="#000" opacity="0.08" filter="url(#grain)"/>
    <path d="M22 292 C106 252 162 290 236 252 S368 240 458 206" fill="none" stroke="#ead48a" stroke-width="7" stroke-linecap="round" stroke-opacity="0.12"/>
  </g>
</svg>
