<svg xmlns="http://www.w3.org/2000/svg" width="480" height="320" viewBox="0 0 480 320" role="img" aria-label="Blitzkrieg Orders card art">
  <defs>
    <linearGradient id="bg" x1="0" x2="1" y1="0" y2="1">
      <stop offset="0" stop-color="#252727"/>
      <stop offset="0.52" stop-color="#585548"/>
      <stop offset="1" stop-color="#101111"/>
    </linearGradient>
    <radialGradient id="lamp" cx="56%" cy="16%" r="78%">
      <stop offset="0" stop-color="#c7b68c" stop-opacity="0.68"/>
      <stop offset="0.46" stop-color="#c7b68c" stop-opacity="0.16"/>
      <stop offset="1" stop-color="#c7b68c" stop-opacity="0"/>
    </radialGradient>
    <linearGradient id="ground" x1="0" x2="1" y1="0" y2="0">
      <stop offset="0" stop-color="#070a0a" stop-opacity="0.82"/>
      <stop offset="0.5" stop-color="#101111" stop-opacity="0.58"/>
      <stop offset="1" stop-color="#070a0a" stop-opacity="0.88"/>
    </linearGradient>
    <filter id="grain">
      <feTurbulence baseFrequency="0.72" numOctaves="2" seed="41" type="fractalNoise"/>
      <feColorMatrix type="saturate" values="0"/>
      <feComponentTransfer>
        <feFuncA type="table" tableValues="0 0.18"/>
      </feComponentTransfer>
      <feBlend mode="overlay" in2="SourceGraphic"/>
    </filter>
    <clipPath id="round">
      <rect width="480" height="320" rx="18"/>
    </clipPath>
  </defs>
  <g clip-path="url(#round)">
    <rect width="480" height="320" fill="url(#bg)"/>
    <rect width="480" height="320" fill="url(#lamp)"/>
    <path d="M0 192 C80 174 132 192 224 194 S370 172 480 158 V320 H0 Z" fill="#080909" opacity="0.34"/>
    <path d="M0 238 C102 205 146 246 232 218 S380 194 480 172 V320 H0 Z" fill="url(#ground)"/>
    <path d="M42 230 L82 198 L122 238 L178 190 L244 226 L316 176 L418 230" fill="none" stroke="#080909" stroke-width="15" stroke-linejoin="round" stroke-opacity="0.42"/>
  <path d="M42 226 L82 194 L122 234 L178 186 L244 222 L316 172 L418 226" fill="none" stroke="#c7b68c" stroke-width="4" stroke-linejoin="round" stroke-opacity="0.14"/>
    <path d="M52 78 H426 M86 112 H396 M72 146 H412 M104 180 H370 M128 214 H350" stroke="#c7b68c" stroke-width="2" stroke-opacity="0.12"/>
    <g fill="#080909" stroke="#c7b68c" stroke-opacity="0.3" stroke-width="5" stroke-linecap="round" stroke-linejoin="round">
    <path d="M272 118 L298 170 L356 174 L308 208 L320 266 L272 228 L222 266 L238 208 L184 174 L246 168 Z" fill="#d0b56f" fill-opacity="0.32"/>
    <path d="M54 250 C126 206 168 218 226 170 S344 108 432 92" fill="none" stroke-width="9" stroke-opacity="0.34"/>
    <path d="M392 80 L432 92 L406 126" fill="none" stroke-width="9" stroke-opacity="0.34"/>
    <circle cx="272" cy="188" r="42" fill="none" stroke-width="8"/>
  </g>
    <circle cx="252" cy="124" r="4" fill="#c7b68c" opacity="0.1"/>
    <circle cx="322" cy="70" r="5" fill="#c7b68c" opacity="0.14"/>
    <circle cx="392" cy="192" r="2" fill="#c7b68c" opacity="0.18"/>
    <circle cx="66" cy="138" r="3" fill="#c7b68c" opacity="0.22"/>
    <circle cx="136" cy="84" r="4" fill="#c7b68c" opacity="0.1"/>
    <circle cx="206" cy="206" r="5" fill="#c7b68c" opacity="0.14"/>
    <circle cx="276" cy="152" r="2" fill="#c7b68c" opacity="0.18"/>
    <circle cx="346" cy="98" r="3" fill="#c7b68c" opacity="0.22"/>
    <circle cx="416" cy="44" r="4" fill="#c7b68c" opacity="0.1"/>
    <rect width="480" height="320" fill="#000" opacity="0.08" filter="url(#grain)"/>
    <path d="M22 292 C106 252 162 290 236 252 S368 240 458 206" fill="none" stroke="#c7b68c" stroke-width="7" stroke-linecap="round" stroke-opacity="0.12"/>
  </g>
</svg>
