<svg xmlns="http://www.w3.org/2000/svg" width="480" height="320" viewBox="0 0 480 320" role="img" aria-label="Enigma Intercept card art">
  <defs>
    <linearGradient id="bg" x1="0" x2="1" y1="0" y2="1">
      <stop offset="0" stop-color="#252727"/>
      <stop offset="0.52" stop-color="#585548"/>
      <stop offset="1" stop-color="#101111"/>
    </linearGradient>
    <radialGradient id="lamp" cx="49%" cy="25%" r="78%">
      <stop offset="0" stop-color="#c7b68c" stop-opacity="0.68"/>
      <stop offset="0.46" stop-color="#c7b68c" stop-opacity="0.16"/>
      <stop offset="1" stop-color="#c7b68c" stop-opacity="0"/>
    </radialGradient>
    <linearGradient id="ground" x1="0" x2="1" y1="0" y2="0">
      <stop offset="0" stop-color="#070a0a" stop-opacity="0.82"/>
      <stop offset="0.5" stop-color="#101111" stop-opacity="0.58"/>
      <stop offset="1" stop-color="#070a0a" stop-opacity="0.88"/>
    </linearGradient>
    <filter id="grain">
      <feTurbulence baseFrequency="0.72" numOctaves="2" seed="50" type="fractalNoise"/>
      <feColorMatrix type="saturate" values="0"/>
      <feComponentTransfer>
        <feFuncA type="table" tableValues="0 0.18"/>
      </feComponentTransfer>
      <feBlend mode="overlay" in2="SourceGraphic"/>
    </filter>
    <clipPath id="round">
      <rect width="480" height="320" rx="18"/>
    </clipPath>
  </defs>
  <g clip-path="url(#round)">
    <rect width="480" height="320" fill="url(#bg)"/>
    <rect width="480" height="320" fill="url(#lamp)"/>
    <path d="M0 217 C80 185 132 183 224 193 S370 167 480 151 V320 H0 Z" fill="#080909" opacity="0.34"/>
    <path d="M0 238 C102 205 146 246 232 218 S380 194 480 172 V320 H0 Z" fill="url(#ground)"/>
    <path d="M42 230 L82 198 L122 238 L178 190 L244 226 L316 176 L418 230" fill="none" stroke="#080909" stroke-width="15" stroke-linejoin="round" stroke-opacity="0.42"/>
  <path d="M42 226 L82 194 L122 234 L178 186 L244 222 L316 172 L418 226" fill="none" stroke="#c7b68c" stroke-width="4" stroke-linejoin="round" stroke-opacity="0.14"/>
    <path d="M52 78 H426 M86 112 H396 M72 146 H412 M104 180 H370 M128 214 H350" stroke="#c7b68c" stroke-width="2" stroke-opacity="0.12"/>
    <g fill="#080909" stroke="#c7b68c" stroke-opacity="0.28" stroke-width="5" stroke-linecap="round" stroke-linejoin="round">
    <rect x="149" y="114" width="210" height="128" rx="12" opacity="0.72"/>
    <path d="M175 148 H329 M175 180 H299 M175 212 H315" opacity="0.68"/>
    <circle cx="315" cy="154" r="28" fill="none" stroke-width="7"/>
    <path d="M315 104 V204 M265 154 H365" opacity="0.72"/>
    <path d="M82 246 L168 210 L254 246 L336 198 L420 230" fill="none" stroke-width="7" stroke-opacity="0.16"/>
  </g>
    <circle cx="69" cy="133" r="5" fill="#c7b68c" opacity="0.1"/>
    <circle cx="210" cy="116" r="2" fill="#c7b68c" opacity="0.14"/>
    <circle cx="351" cy="99" r="3" fill="#c7b68c" opacity="0.18"/>
    <circle cx="96" cy="82" r="4" fill="#c7b68c" opacity="0.22"/>
    <circle cx="237" cy="65" r="5" fill="#c7b68c" opacity="0.1"/>
    <circle cx="378" cy="48" r="2" fill="#c7b68c" opacity="0.14"/>
    <circle cx="123" cy="207" r="3" fill="#c7b68c" opacity="0.18"/>
    <circle cx="264" cy="190" r="4" fill="#c7b68c" opacity="0.22"/>
    <circle cx="405" cy="173" r="5" fill="#c7b68c" opacity="0.1"/>
    <rect width="480" height="320" fill="#000" opacity="0.08" filter="url(#grain)"/>
    <path d="M22 292 C106 252 162 290 236 252 S368 240 458 206" fill="none" stroke="#c7b68c" stroke-width="7" stroke-linecap="round" stroke-opacity="0.12"/>
  </g>
</svg>
