<svg xmlns="http://www.w3.org/2000/svg" width="480" height="320" viewBox="0 0 480 320" role="img" aria-label="88mm Flak Battery card art">
  <defs>
    <linearGradient id="bg" x1="0" x2="1" y1="0" y2="1">
      <stop offset="0" stop-color="#252727"/>
      <stop offset="0.52" stop-color="#585548"/>
      <stop offset="1" stop-color="#101111"/>
    </linearGradient>
    <radialGradient id="lamp" cx="56%" cy="20%" r="78%">
      <stop offset="0" stop-color="#c7b68c" stop-opacity="0.68"/>
      <stop offset="0.46" stop-color="#c7b68c" stop-opacity="0.16"/>
      <stop offset="1" stop-color="#c7b68c" stop-opacity="0"/>
    </radialGradient>
    <linearGradient id="ground" x1="0" x2="1" y1="0" y2="0">
      <stop offset="0" stop-color="#070a0a" stop-opacity="0.82"/>
      <stop offset="0.5" stop-color="#101111" stop-opacity="0.58"/>
      <stop offset="1" stop-color="#070a0a" stop-opacity="0.88"/>
    </linearGradient>
    <filter id="grain">
      <feTurbulence baseFrequency="0.72" numOctaves="2" seed="24" type="fractalNoise"/>
      <feColorMatrix type="saturate" values="0"/>
      <feComponentTransfer>
        <feFuncA type="table" tableValues="0 0.18"/>
      </feComponentTransfer>
      <feBlend mode="overlay" in2="SourceGraphic"/>
    </filter>
    <clipPath id="round">
      <rect width="480" height="320" rx="18"/>
    </clipPath>
  </defs>
  <g clip-path="url(#round)">
    <rect width="480" height="320" fill="url(#bg)"/>
    <rect width="480" height="320" fill="url(#lamp)"/>
    <path d="M0 208 C80 180 132 194 224 192 S370 150 480 158 V320 H0 Z" fill="#080909" opacity="0.34"/>
    <path d="M0 238 C102 205 146 246 232 218 S380 194 480 172 V320 H0 Z" fill="url(#ground)"/>
    <path d="M42 230 L82 198 L122 238 L178 190 L244 226 L316 176 L418 230" fill="none" stroke="#080909" stroke-width="15" stroke-linejoin="round" stroke-opacity="0.42"/>
  <path d="M42 226 L82 194 L122 234 L178 186 L244 222 L316 172 L418 226" fill="none" stroke="#c7b68c" stroke-width="4" stroke-linejoin="round" stroke-opacity="0.14"/>
    <path d="M52 78 H426 M86 112 H396 M72 146 H412 M104 180 H370 M128 214 H350" stroke="#c7b68c" stroke-width="2" stroke-opacity="0.12"/>
    <g fill="#080909" stroke="#c7b68c" stroke-opacity="0.25" stroke-width="5" stroke-linecap="round" stroke-linejoin="round">
    <circle cx="144" cy="132" r="18"/>
    <path d="M120 128 H168" fill="none"/>
    <path d="M144 150 L126 214 M144 150 L168 212" fill="none"/>
    <path d="M136 176 L216 144" fill="none" stroke-width="8"/>
    <circle cx="230" cy="116" r="18"/>
    <path d="M206 112 H254" fill="none"/>
    <path d="M230 134 L212 198 M230 134 L254 196" fill="none"/>
    <path d="M222 160 L302 128" fill="none" stroke-width="8"/>
    <circle cx="321" cy="142" r="18"/>
    <path d="M297 138 H345" fill="none"/>
    <path d="M321 160 L303 224 M321 160 L345 222" fill="none"/>
    <path d="M313 186 L393 154" fill="none" stroke-width="8"/>
    <path d="M104 238 C164 210 218 242 278 212 S374 200 430 226" fill="none" stroke="#c7b68c" stroke-width="5" stroke-opacity="0.16"/>
  </g>
    <circle cx="72" cy="60" r="4" fill="#c7b68c" opacity="0.1"/>
    <circle cx="82" cy="134" r="5" fill="#c7b68c" opacity="0.14"/>
    <circle cx="92" cy="208" r="2" fill="#c7b68c" opacity="0.18"/>
    <circle cx="102" cy="106" r="3" fill="#c7b68c" opacity="0.22"/>
    <circle cx="112" cy="180" r="4" fill="#c7b68c" opacity="0.1"/>
    <circle cx="122" cy="78" r="5" fill="#c7b68c" opacity="0.14"/>
    <circle cx="132" cy="152" r="2" fill="#c7b68c" opacity="0.18"/>
    <circle cx="142" cy="50" r="3" fill="#c7b68c" opacity="0.22"/>
    <circle cx="152" cy="124" r="4" fill="#c7b68c" opacity="0.1"/>
    <rect width="480" height="320" fill="#000" opacity="0.08" filter="url(#grain)"/>
    <path d="M22 292 C106 252 162 290 236 252 S368 240 458 206" fill="none" stroke="#c7b68c" stroke-width="7" stroke-linecap="round" stroke-opacity="0.12"/>
  </g>
</svg>
