<svg xmlns="http://www.w3.org/2000/svg" width="480" height="320" viewBox="0 0 480 320" role="img" aria-label="Fallschirmjager Drop card art">
  <defs>
    <linearGradient id="bg" x1="0" x2="1" y1="0" y2="1">
      <stop offset="0" stop-color="#252727"/>
      <stop offset="0.52" stop-color="#585548"/>
      <stop offset="1" stop-color="#101111"/>
    </linearGradient>
    <radialGradient id="lamp" cx="59%" cy="35%" r="78%">
      <stop offset="0" stop-color="#c7b68c" stop-opacity="0.68"/>
      <stop offset="0.46" stop-color="#c7b68c" stop-opacity="0.16"/>
      <stop offset="1" stop-color="#c7b68c" stop-opacity="0"/>
    </radialGradient>
    <linearGradient id="ground" x1="0" x2="1" y1="0" y2="0">
      <stop offset="0" stop-color="#070a0a" stop-opacity="0.82"/>
      <stop offset="0.5" stop-color="#101111" stop-opacity="0.58"/>
      <stop offset="1" stop-color="#070a0a" stop-opacity="0.88"/>
    </linearGradient>
    <filter id="grain">
      <feTurbulence baseFrequency="0.72" numOctaves="2" seed="71" type="fractalNoise"/>
      <feColorMatrix type="saturate" values="0"/>
      <feComponentTransfer>
        <feFuncA type="table" tableValues="0 0.18"/>
      </feComponentTransfer>
      <feBlend mode="overlay" in2="SourceGraphic"/>
    </filter>
    <clipPath id="round">
      <rect width="480" height="320" rx="18"/>
    </clipPath>
  </defs>
  <g clip-path="url(#round)">
    <rect width="480" height="320" fill="url(#bg)"/>
    <rect width="480" height="320" fill="url(#lamp)"/>
    <path d="M0 211 C80 171 132 197 224 189 S370 165 480 161 V320 H0 Z" fill="#080909" opacity="0.34"/>
    <path d="M0 238 C102 205 146 246 232 218 S380 194 480 172 V320 H0 Z" fill="url(#ground)"/>
    <path d="M42 230 L82 198 L122 238 L178 190 L244 226 L316 176 L418 230" fill="none" stroke="#080909" stroke-width="15" stroke-linejoin="round" stroke-opacity="0.42"/>
  <path d="M42 226 L82 194 L122 234 L178 186 L244 222 L316 172 L418 226" fill="none" stroke="#c7b68c" stroke-width="4" stroke-linejoin="round" stroke-opacity="0.14"/>
    <path d="M52 78 H426 M86 112 H396 M72 146 H412 M104 180 H370 M128 214 H350" stroke="#c7b68c" stroke-width="2" stroke-opacity="0.12"/>
    <g fill="#080909" stroke="#c7b68c" stroke-opacity="0.25" stroke-width="5" stroke-linecap="round" stroke-linejoin="round">
    <circle cx="155" cy="132" r="18"/>
    <path d="M131 128 H179" fill="none"/>
    <path d="M155 150 L137 214 M155 150 L179 212" fill="none"/>
    <path d="M147 176 L227 144" fill="none" stroke-width="8"/>
    <circle cx="219" cy="116" r="18"/>
    <path d="M195 112 H243" fill="none"/>
    <path d="M219 134 L201 198 M219 134 L243 196" fill="none"/>
    <path d="M211 160 L291 128" fill="none" stroke-width="8"/>
    <circle cx="326.5" cy="142" r="18"/>
    <path d="M302.5 138 H350.5" fill="none"/>
    <path d="M326.5 160 L308.5 224 M326.5 160 L350.5 222" fill="none"/>
    <path d="M318.5 186 L398.5 154" fill="none" stroke-width="8"/>
    <path d="M104 238 C164 210 218 242 278 212 S374 200 430 226" fill="none" stroke="#c7b68c" stroke-width="5" stroke-opacity="0.16"/>
  </g>
    <circle cx="279" cy="127" r="3" fill="#c7b68c" opacity="0.1"/>
    <circle cx="94" cy="144" r="4" fill="#c7b68c" opacity="0.14"/>
    <circle cx="305" cy="161" r="5" fill="#c7b68c" opacity="0.18"/>
    <circle cx="120" cy="178" r="2" fill="#c7b68c" opacity="0.22"/>
    <circle cx="331" cy="195" r="3" fill="#c7b68c" opacity="0.1"/>
    <circle cx="146" cy="212" r="4" fill="#c7b68c" opacity="0.14"/>
    <circle cx="357" cy="53" r="5" fill="#c7b68c" opacity="0.18"/>
    <circle cx="172" cy="70" r="2" fill="#c7b68c" opacity="0.22"/>
    <circle cx="383" cy="87" r="3" fill="#c7b68c" opacity="0.1"/>
    <rect width="480" height="320" fill="#000" opacity="0.08" filter="url(#grain)"/>
    <path d="M22 292 C106 252 162 290 236 252 S368 240 458 206" fill="none" stroke="#c7b68c" stroke-width="7" stroke-linecap="round" stroke-opacity="0.12"/>
  </g>
</svg>
