<svg xmlns="http://www.w3.org/2000/svg" width="480" height="320" viewBox="0 0 480 320" role="img" aria-label="U-Boat Wolfpack card art">
  <defs>
    <linearGradient id="bg" x1="0" x2="1" y1="0" y2="1">
      <stop offset="0" stop-color="#252727"/>
      <stop offset="0.52" stop-color="#585548"/>
      <stop offset="1" stop-color="#101111"/>
    </linearGradient>
    <radialGradient id="lamp" cx="23%" cy="35%" r="78%">
      <stop offset="0" stop-color="#c7b68c" stop-opacity="0.68"/>
      <stop offset="0.46" stop-color="#c7b68c" stop-opacity="0.16"/>
      <stop offset="1" stop-color="#c7b68c" stop-opacity="0"/>
    </radialGradient>
    <linearGradient id="ground" x1="0" x2="1" y1="0" y2="0">
      <stop offset="0" stop-color="#070a0a" stop-opacity="0.82"/>
      <stop offset="0.5" stop-color="#101111" stop-opacity="0.58"/>
      <stop offset="1" stop-color="#070a0a" stop-opacity="0.88"/>
    </linearGradient>
    <filter id="grain">
      <feTurbulence baseFrequency="0.72" numOctaves="2" seed="46" type="fractalNoise"/>
      <feColorMatrix type="saturate" values="0"/>
      <feComponentTransfer>
        <feFuncA type="table" tableValues="0 0.18"/>
      </feComponentTransfer>
      <feBlend mode="overlay" in2="SourceGraphic"/>
    </filter>
    <clipPath id="round">
      <rect width="480" height="320" rx="18"/>
    </clipPath>
  </defs>
  <g clip-path="url(#round)">
    <rect width="480" height="320" fill="url(#bg)"/>
    <rect width="480" height="320" fill="url(#lamp)"/>
    <path d="M0 207 C80 183 132 197 224 187 S370 169 480 125 V320 H0 Z" fill="#080909" opacity="0.34"/>
    <path d="M0 238 C102 205 146 246 232 218 S380 194 480 172 V320 H0 Z" fill="url(#ground)"/>
    <path d="M0 208 C86 188 130 226 214 206 S348 180 480 204 V320 H0 Z" fill="#1e3f50" opacity="0.38"/>
    <path d="M30 230 C96 212 142 240 206 224 S334 204 448 226" fill="none" stroke="#c7b68c" stroke-width="4" stroke-opacity="0.18"/>
    <path d="M52 78 H426 M86 112 H396 M72 146 H412 M104 180 H370 M128 214 H350" stroke="#c7b68c" stroke-width="2" stroke-opacity="0.12"/>
    <g fill="#080909" stroke="#c7b68c" stroke-opacity="0.28" stroke-width="5" stroke-linejoin="round">
    <path d="M72 257 H372 L420 225 L392 283 H112 Z" opacity="0.84"/>
    <path d="M164 217 H260 L286 253 H140 Z" opacity="0.7"/>
    <path d="M242 225 L380 201 M214 221 L88 203" fill="none" stroke-width="8" stroke-linecap="round"/>
    <path d="M120 295 C190 271 258 313 340 283" fill="none" stroke-width="7" stroke-opacity="0.22"/>
  </g>
    <circle cx="207" cy="75" r="3" fill="#c7b68c" opacity="0.1"/>
    <circle cx="262" cy="152" r="4" fill="#c7b68c" opacity="0.14"/>
    <circle cx="317" cy="53" r="5" fill="#c7b68c" opacity="0.18"/>
    <circle cx="372" cy="130" r="2" fill="#c7b68c" opacity="0.22"/>
    <circle cx="427" cy="207" r="3" fill="#c7b68c" opacity="0.1"/>
    <circle cx="86" cy="108" r="4" fill="#c7b68c" opacity="0.14"/>
    <circle cx="141" cy="185" r="5" fill="#c7b68c" opacity="0.18"/>
    <circle cx="196" cy="86" r="2" fill="#c7b68c" opacity="0.22"/>
    <circle cx="251" cy="163" r="3" fill="#c7b68c" opacity="0.1"/>
    <rect width="480" height="320" fill="#000" opacity="0.08" filter="url(#grain)"/>
    <path d="M22 292 C106 252 162 290 236 252 S368 240 458 206" fill="none" stroke="#c7b68c" stroke-width="7" stroke-linecap="round" stroke-opacity="0.12"/>
  </g>
</svg>
