<svg xmlns="http://www.w3.org/2000/svg" width="480" height="320" viewBox="0 0 480 320" role="img" aria-label="Free French Column card art">
  <defs>
    <linearGradient id="bg" x1="0" x2="1" y1="0" y2="1">
      <stop offset="0" stop-color="#18345f"/>
      <stop offset="0.52" stop-color="#46678d"/>
      <stop offset="1" stop-color="#101825"/>
    </linearGradient>
    <radialGradient id="lamp" cx="24%" cy="28%" r="78%">
      <stop offset="0" stop-color="#d7d9d6" stop-opacity="0.68"/>
      <stop offset="0.46" stop-color="#d7d9d6" stop-opacity="0.16"/>
      <stop offset="1" stop-color="#d7d9d6" stop-opacity="0"/>
    </radialGradient>
    <linearGradient id="ground" x1="0" x2="1" y1="0" y2="0">
      <stop offset="0" stop-color="#070a0a" stop-opacity="0.82"/>
      <stop offset="0.5" stop-color="#101825" stop-opacity="0.58"/>
      <stop offset="1" stop-color="#070a0a" stop-opacity="0.88"/>
    </linearGradient>
    <filter id="grain">
      <feTurbulence baseFrequency="0.72" numOctaves="2" seed="11" type="fractalNoise"/>
      <feColorMatrix type="saturate" values="0"/>
      <feComponentTransfer>
        <feFuncA type="table" tableValues="0 0.18"/>
      </feComponentTransfer>
      <feBlend mode="overlay" in2="SourceGraphic"/>
    </filter>
    <clipPath id="round">
      <rect width="480" height="320" rx="18"/>
    </clipPath>
  </defs>
  <g clip-path="url(#round)">
    <rect width="480" height="320" fill="url(#bg)"/>
    <rect width="480" height="320" fill="url(#lamp)"/>
    <path d="M0 192 C80 178 132 206 224 196 S370 182 480 126 V320 H0 Z" fill="#0b1018" opacity="0.34"/>
    <path d="M0 238 C102 205 146 246 232 218 S380 194 480 172 V320 H0 Z" fill="url(#ground)"/>
    <path d="M42 230 L82 198 L122 238 L178 190 L244 226 L316 176 L418 230" fill="none" stroke="#0b1018" stroke-width="15" stroke-linejoin="round" stroke-opacity="0.42"/>
  <path d="M42 226 L82 194 L122 234 L178 186 L244 222 L316 172 L418 226" fill="none" stroke="#d7d9d6" stroke-width="4" stroke-linejoin="round" stroke-opacity="0.14"/>
    <path d="M52 78 H426 M86 112 H396 M72 146 H412 M104 180 H370 M128 214 H350" stroke="#d7d9d6" stroke-width="2" stroke-opacity="0.12"/>
    <g fill="#0b1018" stroke="#d7d9d6" stroke-opacity="0.25" stroke-width="5" stroke-linecap="round" stroke-linejoin="round">
    <circle cx="152" cy="132" r="18"/>
    <path d="M128 128 H176" fill="none"/>
    <path d="M152 150 L134 214 M152 150 L176 212" fill="none"/>
    <path d="M144 176 L224 144" fill="none" stroke-width="8"/>
    <circle cx="222" cy="116" r="18"/>
    <path d="M198 112 H246" fill="none"/>
    <path d="M222 134 L204 198 M222 134 L246 196" fill="none"/>
    <path d="M214 160 L294 128" fill="none" stroke-width="8"/>
    <circle cx="325" cy="142" r="18"/>
    <path d="M301 138 H349" fill="none"/>
    <path d="M325 160 L307 224 M325 160 L349 222" fill="none"/>
    <path d="M317 186 L397 154" fill="none" stroke-width="8"/>
    <path d="M104 238 C164 210 218 242 278 212 S374 200 430 226" fill="none" stroke="#d7d9d6" stroke-width="5" stroke-opacity="0.16"/>
  </g>
    <circle cx="264" cy="140" r="4" fill="#d7d9d6" opacity="0.1"/>
    <circle cx="338" cy="54" r="5" fill="#d7d9d6" opacity="0.14"/>
    <circle cx="412" cy="144" r="2" fill="#d7d9d6" opacity="0.18"/>
    <circle cx="90" cy="58" r="3" fill="#d7d9d6" opacity="0.22"/>
    <circle cx="164" cy="148" r="4" fill="#d7d9d6" opacity="0.1"/>
    <circle cx="238" cy="62" r="5" fill="#d7d9d6" opacity="0.14"/>
    <circle cx="312" cy="152" r="2" fill="#d7d9d6" opacity="0.18"/>
    <circle cx="386" cy="66" r="3" fill="#d7d9d6" opacity="0.22"/>
    <circle cx="64" cy="156" r="4" fill="#d7d9d6" opacity="0.1"/>
    <rect width="480" height="320" fill="#000" opacity="0.08" filter="url(#grain)"/>
    <path d="M22 292 C106 252 162 290 236 252 S368 240 458 206" fill="none" stroke="#d7d9d6" stroke-width="7" stroke-linecap="round" stroke-opacity="0.12"/>
  </g>
</svg>
