<svg xmlns="http://www.w3.org/2000/svg" width="480" height="320" viewBox="0 0 480 320" role="img" aria-label="Maginot Fortification card art">
  <defs>
    <linearGradient id="bg" x1="0" x2="1" y1="0" y2="1">
      <stop offset="0" stop-color="#18345f"/>
      <stop offset="0.52" stop-color="#46678d"/>
      <stop offset="1" stop-color="#101825"/>
    </linearGradient>
    <radialGradient id="lamp" cx="61%" cy="29%" r="78%">
      <stop offset="0" stop-color="#d7d9d6" stop-opacity="0.68"/>
      <stop offset="0.46" stop-color="#d7d9d6" stop-opacity="0.16"/>
      <stop offset="1" stop-color="#d7d9d6" stop-opacity="0"/>
    </radialGradient>
    <linearGradient id="ground" x1="0" x2="1" y1="0" y2="0">
      <stop offset="0" stop-color="#070a0a" stop-opacity="0.82"/>
      <stop offset="0.5" stop-color="#101825" stop-opacity="0.58"/>
      <stop offset="1" stop-color="#070a0a" stop-opacity="0.88"/>
    </linearGradient>
    <filter id="grain">
      <feTurbulence baseFrequency="0.72" numOctaves="2" seed="0" type="fractalNoise"/>
      <feColorMatrix type="saturate" values="0"/>
      <feComponentTransfer>
        <feFuncA type="table" tableValues="0 0.18"/>
      </feComponentTransfer>
      <feBlend mode="overlay" in2="SourceGraphic"/>
    </filter>
    <clipPath id="round">
      <rect width="480" height="320" rx="18"/>
    </clipPath>
  </defs>
  <g clip-path="url(#round)">
    <rect width="480" height="320" fill="url(#bg)"/>
    <rect width="480" height="320" fill="url(#lamp)"/>
    <path d="M0 197 C80 185 132 183 224 201 S370 159 480 163 V320 H0 Z" fill="#0b1018" opacity="0.34"/>
    <path d="M0 238 C102 205 146 246 232 218 S380 194 480 172 V320 H0 Z" fill="url(#ground)"/>
    <path d="M42 230 L82 198 L122 238 L178 190 L244 226 L316 176 L418 230" fill="none" stroke="#0b1018" stroke-width="15" stroke-linejoin="round" stroke-opacity="0.42"/>
  <path d="M42 226 L82 194 L122 234 L178 186 L244 222 L316 172 L418 226" fill="none" stroke="#d7d9d6" stroke-width="4" stroke-linejoin="round" stroke-opacity="0.14"/>
    <path d="M52 78 H426 M86 112 H396 M72 146 H412 M104 180 H370 M128 214 H350" stroke="#d7d9d6" stroke-width="2" stroke-opacity="0.12"/>
    <g fill="#0b1018" stroke="#d7d9d6" stroke-opacity="0.25" stroke-width="5" stroke-linecap="round" stroke-linejoin="round">
    <circle cx="149" cy="132" r="18"/>
    <path d="M125 128 H173" fill="none"/>
    <path d="M149 150 L131 214 M149 150 L173 212" fill="none"/>
    <path d="M141 176 L221 144" fill="none" stroke-width="8"/>
    <circle cx="225" cy="116" r="18"/>
    <path d="M201 112 H249" fill="none"/>
    <path d="M225 134 L207 198 M225 134 L249 196" fill="none"/>
    <path d="M217 160 L297 128" fill="none" stroke-width="8"/>
    <circle cx="323.5" cy="142" r="18"/>
    <path d="M299.5 138 H347.5" fill="none"/>
    <path d="M323.5 160 L305.5 224 M323.5 160 L347.5 222" fill="none"/>
    <path d="M315.5 186 L395.5 154" fill="none" stroke-width="8"/>
    <path d="M104 238 C164 210 218 242 278 212 S374 200 430 226" fill="none" stroke="#d7d9d6" stroke-width="5" stroke-opacity="0.16"/>
  </g>
    <circle cx="321" cy="161" r="5" fill="#d7d9d6" opacity="0.1"/>
    <circle cx="150" cy="44" r="2" fill="#d7d9d6" opacity="0.14"/>
    <circle cx="375" cy="103" r="3" fill="#d7d9d6" opacity="0.18"/>
    <circle cx="204" cy="162" r="4" fill="#d7d9d6" opacity="0.22"/>
    <circle cx="429" cy="45" r="5" fill="#d7d9d6" opacity="0.1"/>
    <circle cx="258" cy="104" r="2" fill="#d7d9d6" opacity="0.14"/>
    <circle cx="87" cy="163" r="3" fill="#d7d9d6" opacity="0.18"/>
    <circle cx="312" cy="46" r="4" fill="#d7d9d6" opacity="0.22"/>
    <circle cx="141" cy="105" r="5" fill="#d7d9d6" opacity="0.1"/>
    <rect width="480" height="320" fill="#000" opacity="0.08" filter="url(#grain)"/>
    <path d="M22 292 C106 252 162 290 236 252 S368 240 458 206" fill="none" stroke="#d7d9d6" stroke-width="7" stroke-linecap="round" stroke-opacity="0.12"/>
  </g>
</svg>
