<svg xmlns="http://www.w3.org/2000/svg" width="480" height="320" viewBox="0 0 480 320" role="img" aria-label="Sabotage Rail Lines card art">
  <defs>
    <linearGradient id="bg" x1="0" x2="1" y1="0" y2="1">
      <stop offset="0" stop-color="#18345f"/>
      <stop offset="0.52" stop-color="#46678d"/>
      <stop offset="1" stop-color="#101825"/>
    </linearGradient>
    <radialGradient id="lamp" cx="26%" cy="30%" r="78%">
      <stop offset="0" stop-color="#d7d9d6" stop-opacity="0.68"/>
      <stop offset="0.46" stop-color="#d7d9d6" stop-opacity="0.16"/>
      <stop offset="1" stop-color="#d7d9d6" stop-opacity="0"/>
    </radialGradient>
    <linearGradient id="ground" x1="0" x2="1" y1="0" y2="0">
      <stop offset="0" stop-color="#070a0a" stop-opacity="0.82"/>
      <stop offset="0.5" stop-color="#101825" stop-opacity="0.58"/>
      <stop offset="1" stop-color="#070a0a" stop-opacity="0.88"/>
    </linearGradient>
    <filter id="grain">
      <feTurbulence baseFrequency="0.72" numOctaves="2" seed="0" type="fractalNoise"/>
      <feColorMatrix type="saturate" values="0"/>
      <feComponentTransfer>
        <feFuncA type="table" tableValues="0 0.18"/>
      </feComponentTransfer>
      <feBlend mode="overlay" in2="SourceGraphic"/>
    </filter>
    <clipPath id="round">
      <rect width="480" height="320" rx="18"/>
    </clipPath>
  </defs>
  <g clip-path="url(#round)">
    <rect width="480" height="320" fill="url(#bg)"/>
    <rect width="480" height="320" fill="url(#lamp)"/>
    <path d="M0 210 C80 174 132 190 224 196 S370 166 480 128 V320 H0 Z" fill="#0b1018" opacity="0.34"/>
    <path d="M0 238 C102 205 146 246 232 218 S380 194 480 172 V320 H0 Z" fill="url(#ground)"/>
    <path d="M42 230 L82 198 L122 238 L178 190 L244 226 L316 176 L418 230" fill="none" stroke="#0b1018" stroke-width="15" stroke-linejoin="round" stroke-opacity="0.42"/>
  <path d="M42 226 L82 194 L122 234 L178 186 L244 222 L316 172 L418 226" fill="none" stroke="#d7d9d6" stroke-width="4" stroke-linejoin="round" stroke-opacity="0.14"/>
    <path d="M52 78 H426 M86 112 H396 M72 146 H412 M104 180 H370 M128 214 H350" stroke="#d7d9d6" stroke-width="2" stroke-opacity="0.12"/>
    <g fill="#0b1018" stroke="#d7d9d6" stroke-opacity="0.3" stroke-width="5" stroke-linecap="round" stroke-linejoin="round">
    <path d="M272 118 L298 170 L356 174 L308 208 L320 266 L272 228 L222 266 L238 208 L184 174 L246 168 Z" fill="#c7b15e" fill-opacity="0.32"/>
    <path d="M54 250 C126 206 168 218 226 170 S344 108 432 92" fill="none" stroke-width="9" stroke-opacity="0.34"/>
    <path d="M392 80 L432 92 L406 126" fill="none" stroke-width="9" stroke-opacity="0.34"/>
    <circle cx="272" cy="188" r="42" fill="none" stroke-width="8"/>
  </g>
    <circle cx="90" cy="62" r="2" fill="#d7d9d6" opacity="0.1"/>
    <circle cx="370" cy="66" r="3" fill="#d7d9d6" opacity="0.14"/>
    <circle cx="254" cy="70" r="4" fill="#d7d9d6" opacity="0.18"/>
    <circle cx="138" cy="74" r="5" fill="#d7d9d6" opacity="0.22"/>
    <circle cx="418" cy="78" r="2" fill="#d7d9d6" opacity="0.1"/>
    <circle cx="302" cy="82" r="3" fill="#d7d9d6" opacity="0.14"/>
    <circle cx="186" cy="86" r="4" fill="#d7d9d6" opacity="0.18"/>
    <circle cx="70" cy="90" r="5" fill="#d7d9d6" opacity="0.22"/>
    <circle cx="350" cy="94" r="2" fill="#d7d9d6" opacity="0.1"/>
    <rect width="480" height="320" fill="#000" opacity="0.08" filter="url(#grain)"/>
    <path d="M22 292 C106 252 162 290 236 252 S368 240 458 206" fill="none" stroke="#d7d9d6" stroke-width="7" stroke-linecap="round" stroke-opacity="0.12"/>
  </g>
</svg>
