<svg xmlns="http://www.w3.org/2000/svg" width="480" height="320" viewBox="0 0 480 320" role="img" aria-label="Bersaglieri Motorcyclists card art">
  <defs>
    <linearGradient id="bg" x1="0" x2="1" y1="0" y2="1">
      <stop offset="0" stop-color="#1f4c37"/>
      <stop offset="0.52" stop-color="#547553"/>
      <stop offset="1" stop-color="#101a14"/>
    </linearGradient>
    <radialGradient id="lamp" cx="50%" cy="26%" r="78%">
      <stop offset="0" stop-color="#d8c98c" stop-opacity="0.68"/>
      <stop offset="0.46" stop-color="#d8c98c" stop-opacity="0.16"/>
      <stop offset="1" stop-color="#d8c98c" stop-opacity="0"/>
    </radialGradient>
    <linearGradient id="ground" x1="0" x2="1" y1="0" y2="0">
      <stop offset="0" stop-color="#070a0a" stop-opacity="0.82"/>
      <stop offset="0.5" stop-color="#101a14" stop-opacity="0.58"/>
      <stop offset="1" stop-color="#070a0a" stop-opacity="0.88"/>
    </linearGradient>
    <filter id="grain">
      <feTurbulence baseFrequency="0.72" numOctaves="2" seed="76" type="fractalNoise"/>
      <feColorMatrix type="saturate" values="0"/>
      <feComponentTransfer>
        <feFuncA type="table" tableValues="0 0.18"/>
      </feComponentTransfer>
      <feBlend mode="overlay" in2="SourceGraphic"/>
    </filter>
    <clipPath id="round">
      <rect width="480" height="320" rx="18"/>
    </clipPath>
  </defs>
  <g clip-path="url(#round)">
    <rect width="480" height="320" fill="url(#bg)"/>
    <rect width="480" height="320" fill="url(#lamp)"/>
    <path d="M0 218 C80 162 132 200 224 184 S370 154 480 152 V320 H0 Z" fill="#0a100d" opacity="0.34"/>
    <path d="M0 238 C102 205 146 246 232 218 S380 194 480 172 V320 H0 Z" fill="url(#ground)"/>
    <path d="M42 230 L82 198 L122 238 L178 190 L244 226 L316 176 L418 230" fill="none" stroke="#0a100d" stroke-width="15" stroke-linejoin="round" stroke-opacity="0.42"/>
  <path d="M42 226 L82 194 L122 234 L178 186 L244 222 L316 172 L418 226" fill="none" stroke="#d8c98c" stroke-width="4" stroke-linejoin="round" stroke-opacity="0.14"/>
    <path d="M52 78 H426 M86 112 H396 M72 146 H412 M104 180 H370 M128 214 H350" stroke="#d8c98c" stroke-width="2" stroke-opacity="0.12"/>
    <g fill="#0a100d" stroke="#d8c98c" stroke-opacity="0.25" stroke-width="5" stroke-linecap="round" stroke-linejoin="round">
    <circle cx="146" cy="132" r="18"/>
    <path d="M122 128 H170" fill="none"/>
    <path d="M146 150 L128 214 M146 150 L170 212" fill="none"/>
    <path d="M138 176 L218 144" fill="none" stroke-width="8"/>
    <circle cx="228" cy="116" r="18"/>
    <path d="M204 112 H252" fill="none"/>
    <path d="M228 134 L210 198 M228 134 L252 196" fill="none"/>
    <path d="M220 160 L300 128" fill="none" stroke-width="8"/>
    <circle cx="322" cy="142" r="18"/>
    <path d="M298 138 H346" fill="none"/>
    <path d="M322 160 L304 224 M322 160 L346 222" fill="none"/>
    <path d="M314 186 L394 154" fill="none" stroke-width="8"/>
    <path d="M104 238 C164 210 218 242 278 212 S374 200 430 226" fill="none" stroke="#d8c98c" stroke-width="5" stroke-opacity="0.16"/>
  </g>
    <circle cx="162" cy="70" r="2" fill="#d8c98c" opacity="0.1"/>
    <circle cx="334" cy="146" r="3" fill="#d8c98c" opacity="0.14"/>
    <circle cx="110" cy="46" r="4" fill="#d8c98c" opacity="0.18"/>
    <circle cx="282" cy="122" r="5" fill="#d8c98c" opacity="0.22"/>
    <circle cx="58" cy="198" r="2" fill="#d8c98c" opacity="0.1"/>
    <circle cx="230" cy="98" r="3" fill="#d8c98c" opacity="0.14"/>
    <circle cx="402" cy="174" r="4" fill="#d8c98c" opacity="0.18"/>
    <circle cx="178" cy="74" r="5" fill="#d8c98c" opacity="0.22"/>
    <circle cx="350" cy="150" r="2" fill="#d8c98c" opacity="0.1"/>
    <rect width="480" height="320" fill="#000" opacity="0.08" filter="url(#grain)"/>
    <path d="M22 292 C106 252 162 290 236 252 S368 240 458 206" fill="none" stroke="#d8c98c" stroke-width="7" stroke-linecap="round" stroke-opacity="0.12"/>
  </g>
</svg>
