<svg xmlns="http://www.w3.org/2000/svg" width="480" height="320" viewBox="0 0 480 320" role="img" aria-label="Desert Ambush card art">
  <defs>
    <linearGradient id="bg" x1="0" x2="1" y1="0" y2="1">
      <stop offset="0" stop-color="#1f4c37"/>
      <stop offset="0.52" stop-color="#547553"/>
      <stop offset="1" stop-color="#101a14"/>
    </linearGradient>
    <radialGradient id="lamp" cx="67%" cy="19%" r="78%">
      <stop offset="0" stop-color="#d8c98c" stop-opacity="0.68"/>
      <stop offset="0.46" stop-color="#d8c98c" stop-opacity="0.16"/>
      <stop offset="1" stop-color="#d8c98c" stop-opacity="0"/>
    </radialGradient>
    <linearGradient id="ground" x1="0" x2="1" y1="0" y2="0">
      <stop offset="0" stop-color="#070a0a" stop-opacity="0.82"/>
      <stop offset="0.5" stop-color="#101a14" stop-opacity="0.58"/>
      <stop offset="1" stop-color="#070a0a" stop-opacity="0.88"/>
    </linearGradient>
    <filter id="grain">
      <feTurbulence baseFrequency="0.72" numOctaves="2" seed="69" type="fractalNoise"/>
      <feColorMatrix type="saturate" values="0"/>
      <feComponentTransfer>
        <feFuncA type="table" tableValues="0 0.18"/>
      </feComponentTransfer>
      <feBlend mode="overlay" in2="SourceGraphic"/>
    </filter>
    <clipPath id="round">
      <rect width="480" height="320" rx="18"/>
    </clipPath>
  </defs>
  <g clip-path="url(#round)">
    <rect width="480" height="320" fill="url(#bg)"/>
    <rect width="480" height="320" fill="url(#lamp)"/>
    <path d="M0 203 C80 161 132 191 224 207 S370 185 480 169 V320 H0 Z" fill="#0a100d" opacity="0.34"/>
    <path d="M0 238 C102 205 146 246 232 218 S380 194 480 172 V320 H0 Z" fill="url(#ground)"/>
    <path d="M0 226 C80 196 150 224 230 206 S384 182 480 196 V320 H0 Z" fill="#c9b879" opacity="0.24"/>
    <path d="M60 244 C130 226 188 250 256 232 S364 214 444 230" fill="none" stroke="#d8c98c" stroke-width="6" stroke-opacity="0.16"/>
    <path d="M52 78 H426 M86 112 H396 M72 146 H412 M104 180 H370 M128 214 H350" stroke="#d8c98c" stroke-width="2" stroke-opacity="0.12"/>
    <g fill="#0a100d" stroke="#d8c98c" stroke-opacity="0.3" stroke-width="5" stroke-linecap="round" stroke-linejoin="round">
    <path d="M247 118 L273 170 L331 174 L283 208 L295 266 L247 228 L197 266 L213 208 L159 174 L221 168 Z" fill="#c9b879" fill-opacity="0.32"/>
    <path d="M54 250 C126 206 168 218 226 170 S344 108 432 92" fill="none" stroke-width="9" stroke-opacity="0.34"/>
    <path d="M392 80 L432 92 L406 126" fill="none" stroke-width="9" stroke-opacity="0.34"/>
    <circle cx="247" cy="188" r="42" fill="none" stroke-width="8"/>
  </g>
    <circle cx="411" cy="215" r="3" fill="#d8c98c" opacity="0.1"/>
    <circle cx="270" cy="144" r="4" fill="#d8c98c" opacity="0.14"/>
    <circle cx="129" cy="73" r="5" fill="#d8c98c" opacity="0.18"/>
    <circle cx="384" cy="178" r="2" fill="#d8c98c" opacity="0.22"/>
    <circle cx="243" cy="107" r="3" fill="#d8c98c" opacity="0.1"/>
    <circle cx="102" cy="212" r="4" fill="#d8c98c" opacity="0.14"/>
    <circle cx="357" cy="141" r="5" fill="#d8c98c" opacity="0.18"/>
    <circle cx="216" cy="70" r="2" fill="#d8c98c" opacity="0.22"/>
    <circle cx="75" cy="175" r="3" fill="#d8c98c" opacity="0.1"/>
    <rect width="480" height="320" fill="#000" opacity="0.08" filter="url(#grain)"/>
    <path d="M22 292 C106 252 162 290 236 252 S368 240 458 206" fill="none" stroke="#d8c98c" stroke-width="7" stroke-linecap="round" stroke-opacity="0.12"/>
  </g>
</svg>
