<svg xmlns="http://www.w3.org/2000/svg" width="480" height="320" viewBox="0 0 480 320" role="img" aria-label="Regia Marina Cruiser card art">
  <defs>
    <linearGradient id="bg" x1="0" x2="1" y1="0" y2="1">
      <stop offset="0" stop-color="#1f4c37"/>
      <stop offset="0.52" stop-color="#547553"/>
      <stop offset="1" stop-color="#101a14"/>
    </linearGradient>
    <radialGradient id="lamp" cx="49%" cy="37%" r="78%">
      <stop offset="0" stop-color="#d8c98c" stop-opacity="0.68"/>
      <stop offset="0.46" stop-color="#d8c98c" stop-opacity="0.16"/>
      <stop offset="1" stop-color="#d8c98c" stop-opacity="0"/>
    </radialGradient>
    <linearGradient id="ground" x1="0" x2="1" y1="0" y2="0">
      <stop offset="0" stop-color="#070a0a" stop-opacity="0.82"/>
      <stop offset="0.5" stop-color="#101a14" stop-opacity="0.58"/>
      <stop offset="1" stop-color="#070a0a" stop-opacity="0.88"/>
    </linearGradient>
    <filter id="grain">
      <feTurbulence baseFrequency="0.72" numOctaves="2" seed="12" type="fractalNoise"/>
      <feColorMatrix type="saturate" values="0"/>
      <feComponentTransfer>
        <feFuncA type="table" tableValues="0 0.18"/>
      </feComponentTransfer>
      <feBlend mode="overlay" in2="SourceGraphic"/>
    </filter>
    <clipPath id="round">
      <rect width="480" height="320" rx="18"/>
    </clipPath>
  </defs>
  <g clip-path="url(#round)">
    <rect width="480" height="320" fill="url(#bg)"/>
    <rect width="480" height="320" fill="url(#lamp)"/>
    <path d="M0 217 C80 173 132 213 224 195 S370 167 480 151 V320 H0 Z" fill="#0a100d" opacity="0.34"/>
    <path d="M0 238 C102 205 146 246 232 218 S380 194 480 172 V320 H0 Z" fill="url(#ground)"/>
    <path d="M0 208 C86 188 130 226 214 206 S348 180 480 204 V320 H0 Z" fill="#1e3f50" opacity="0.38"/>
    <path d="M30 230 C96 212 142 240 206 224 S334 204 448 226" fill="none" stroke="#d8c98c" stroke-width="4" stroke-opacity="0.18"/>
    <path d="M52 78 H426 M86 112 H396 M72 146 H412 M104 180 H370 M128 214 H350" stroke="#d8c98c" stroke-width="2" stroke-opacity="0.12"/>
    <g fill="#0a100d" stroke="#d8c98c" stroke-opacity="0.28" stroke-width="5" stroke-linejoin="round">
    <path d="M72 267 H372 L420 235 L392 293 H112 Z" opacity="0.84"/>
    <path d="M164 227 H260 L286 263 H140 Z" opacity="0.7"/>
    <path d="M242 235 L380 211 M214 231 L88 213" fill="none" stroke-width="8" stroke-linecap="round"/>
    <path d="M120 305 C190 281 258 323 340 293" fill="none" stroke-width="7" stroke-opacity="0.22"/>
  </g>
    <circle cx="213" cy="149" r="5" fill="#d8c98c" opacity="0.1"/>
    <circle cx="402" cy="100" r="2" fill="#d8c98c" opacity="0.14"/>
    <circle cx="195" cy="51" r="3" fill="#d8c98c" opacity="0.18"/>
    <circle cx="384" cy="178" r="4" fill="#d8c98c" opacity="0.22"/>
    <circle cx="177" cy="129" r="5" fill="#d8c98c" opacity="0.1"/>
    <circle cx="366" cy="80" r="2" fill="#d8c98c" opacity="0.14"/>
    <circle cx="159" cy="207" r="3" fill="#d8c98c" opacity="0.18"/>
    <circle cx="348" cy="158" r="4" fill="#d8c98c" opacity="0.22"/>
    <circle cx="141" cy="109" r="5" fill="#d8c98c" opacity="0.1"/>
    <rect width="480" height="320" fill="#000" opacity="0.08" filter="url(#grain)"/>
    <path d="M22 292 C106 252 162 290 236 252 S368 240 458 206" fill="none" stroke="#d8c98c" stroke-width="7" stroke-linecap="round" stroke-opacity="0.12"/>
  </g>
</svg>
