<svg xmlns="http://www.w3.org/2000/svg" width="480" height="320" viewBox="0 0 480 320" role="img" aria-label="Jungle Infiltrators card art">
  <defs>
    <linearGradient id="bg" x1="0" x2="1" y1="0" y2="1">
      <stop offset="0" stop-color="#5a221d"/>
      <stop offset="0.52" stop-color="#83503e"/>
      <stop offset="1" stop-color="#160d0b"/>
    </linearGradient>
    <radialGradient id="lamp" cx="33%" cy="13%" r="78%">
      <stop offset="0" stop-color="#d8c49a" stop-opacity="0.68"/>
      <stop offset="0.46" stop-color="#d8c49a" stop-opacity="0.16"/>
      <stop offset="1" stop-color="#d8c49a" stop-opacity="0"/>
    </radialGradient>
    <linearGradient id="ground" x1="0" x2="1" y1="0" y2="0">
      <stop offset="0" stop-color="#070a0a" stop-opacity="0.82"/>
      <stop offset="0.5" stop-color="#160d0b" stop-opacity="0.58"/>
      <stop offset="1" stop-color="#070a0a" stop-opacity="0.88"/>
    </linearGradient>
    <filter id="grain">
      <feTurbulence baseFrequency="0.72" numOctaves="2" seed="76" type="fractalNoise"/>
      <feColorMatrix type="saturate" values="0"/>
      <feComponentTransfer>
        <feFuncA type="table" tableValues="0 0.18"/>
      </feComponentTransfer>
      <feBlend mode="overlay" in2="SourceGraphic"/>
    </filter>
    <clipPath id="round">
      <rect width="480" height="320" rx="18"/>
    </clipPath>
  </defs>
  <g clip-path="url(#round)">
    <rect width="480" height="320" fill="url(#bg)"/>
    <rect width="480" height="320" fill="url(#lamp)"/>
    <path d="M0 201 C80 169 132 183 224 197 S370 187 480 135 V320 H0 Z" fill="#0d0908" opacity="0.34"/>
    <path d="M0 238 C102 205 146 246 232 218 S380 194 480 172 V320 H0 Z" fill="url(#ground)"/>
    <path d="M34 78 C54 134 48 202 26 284 M96 58 C120 140 108 214 72 306 M410 72 C382 150 386 224 430 302" stroke="#0d0908" stroke-width="18" stroke-linecap="round" opacity="0.42"/>
    <path d="M24 86 L74 116 L44 134 M84 70 L134 104 L98 126 M404 84 L358 118 L396 134" fill="none" stroke="#d8c49a" stroke-width="7" stroke-linecap="round" stroke-opacity="0.18"/>
    <path d="M52 78 H426 M86 112 H396 M72 146 H412 M104 180 H370 M128 214 H350" stroke="#d8c49a" stroke-width="2" stroke-opacity="0.12"/>
    <g fill="#0d0908" stroke="#d8c49a" stroke-opacity="0.25" stroke-width="5" stroke-linecap="round" stroke-linejoin="round">
    <circle cx="153" cy="132" r="18"/>
    <path d="M129 128 H177" fill="none"/>
    <path d="M153 150 L135 214 M153 150 L177 212" fill="none"/>
    <path d="M145 176 L225 144" fill="none" stroke-width="8"/>
    <circle cx="221" cy="116" r="18"/>
    <path d="M197 112 H245" fill="none"/>
    <path d="M221 134 L203 198 M221 134 L245 196" fill="none"/>
    <path d="M213 160 L293 128" fill="none" stroke-width="8"/>
    <circle cx="325.5" cy="142" r="18"/>
    <path d="M301.5 138 H349.5" fill="none"/>
    <path d="M325.5 160 L307.5 224 M325.5 160 L349.5 222" fill="none"/>
    <path d="M317.5 186 L397.5 154" fill="none" stroke-width="8"/>
    <path d="M104 238 C164 210 218 242 278 212 S374 200 430 226" fill="none" stroke="#d8c49a" stroke-width="5" stroke-opacity="0.16"/>
  </g>
    <circle cx="381" cy="197" r="5" fill="#d8c49a" opacity="0.1"/>
    <circle cx="98" cy="52" r="2" fill="#d8c49a" opacity="0.14"/>
    <circle cx="211" cy="83" r="3" fill="#d8c49a" opacity="0.18"/>
    <circle cx="324" cy="114" r="4" fill="#d8c49a" opacity="0.22"/>
    <circle cx="437" cy="145" r="5" fill="#d8c49a" opacity="0.1"/>
    <circle cx="154" cy="176" r="2" fill="#d8c49a" opacity="0.14"/>
    <circle cx="267" cy="207" r="3" fill="#d8c49a" opacity="0.18"/>
    <circle cx="380" cy="62" r="4" fill="#d8c49a" opacity="0.22"/>
    <circle cx="97" cy="93" r="5" fill="#d8c49a" opacity="0.1"/>
    <rect width="480" height="320" fill="#000" opacity="0.08" filter="url(#grain)"/>
    <path d="M22 292 C106 252 162 290 236 252 S368 240 458 206" fill="none" stroke="#d8c49a" stroke-width="7" stroke-linecap="round" stroke-opacity="0.12"/>
  </g>
</svg>
