<svg xmlns="http://www.w3.org/2000/svg" width="480" height="320" viewBox="0 0 480 320" role="img" aria-label="Night Torpedo Run card art">
  <defs>
    <linearGradient id="bg" x1="0" x2="1" y1="0" y2="1">
      <stop offset="0" stop-color="#5a221d"/>
      <stop offset="0.52" stop-color="#83503e"/>
      <stop offset="1" stop-color="#160d0b"/>
    </linearGradient>
    <radialGradient id="lamp" cx="64%" cy="16%" r="78%">
      <stop offset="0" stop-color="#d8c49a" stop-opacity="0.68"/>
      <stop offset="0.46" stop-color="#d8c49a" stop-opacity="0.16"/>
      <stop offset="1" stop-color="#d8c49a" stop-opacity="0"/>
    </radialGradient>
    <linearGradient id="ground" x1="0" x2="1" y1="0" y2="0">
      <stop offset="0" stop-color="#070a0a" stop-opacity="0.82"/>
      <stop offset="0.5" stop-color="#160d0b" stop-opacity="0.58"/>
      <stop offset="1" stop-color="#070a0a" stop-opacity="0.88"/>
    </linearGradient>
    <filter id="grain">
      <feTurbulence baseFrequency="0.72" numOctaves="2" seed="37" type="fractalNoise"/>
      <feColorMatrix type="saturate" values="0"/>
      <feComponentTransfer>
        <feFuncA type="table" tableValues="0 0.18"/>
      </feComponentTransfer>
      <feBlend mode="overlay" in2="SourceGraphic"/>
    </filter>
    <clipPath id="round">
      <rect width="480" height="320" rx="18"/>
    </clipPath>
  </defs>
  <g clip-path="url(#round)">
    <rect width="480" height="320" fill="url(#bg)"/>
    <rect width="480" height="320" fill="url(#lamp)"/>
    <path d="M0 216 C80 176 132 214 224 200 S370 194 480 166 V320 H0 Z" fill="#0d0908" opacity="0.34"/>
    <path d="M0 238 C102 205 146 246 232 218 S380 194 480 172 V320 H0 Z" fill="url(#ground)"/>
    <path d="M42 230 L82 198 L122 238 L178 190 L244 226 L316 176 L418 230" fill="none" stroke="#0d0908" stroke-width="15" stroke-linejoin="round" stroke-opacity="0.42"/>
  <path d="M42 226 L82 194 L122 234 L178 186 L244 222 L316 172 L418 226" fill="none" stroke="#d8c49a" stroke-width="4" stroke-linejoin="round" stroke-opacity="0.14"/>
    <path d="M52 78 H426 M86 112 H396 M72 146 H412 M104 180 H370 M128 214 H350" stroke="#d8c49a" stroke-width="2" stroke-opacity="0.12"/>
    <g fill="#0d0908" stroke="#d8c49a" stroke-opacity="0.28" stroke-width="5" stroke-linejoin="round">
    <path d="M72 270 H372 L420 238 L392 296 H112 Z" opacity="0.84"/>
    <path d="M164 230 H260 L286 266 H140 Z" opacity="0.7"/>
    <path d="M242 238 L380 214 M214 234 L88 216" fill="none" stroke-width="8" stroke-linecap="round"/>
    <path d="M120 308 C190 284 258 326 340 296" fill="none" stroke-width="7" stroke-opacity="0.22"/>
  </g>
    <circle cx="240" cy="196" r="4" fill="#d8c49a" opacity="0.1"/>
    <circle cx="174" cy="86" r="5" fill="#d8c49a" opacity="0.14"/>
    <circle cx="108" cy="152" r="2" fill="#d8c49a" opacity="0.18"/>
    <circle cx="42" cy="42" r="3" fill="#d8c49a" opacity="0.22"/>
    <circle cx="372" cy="108" r="4" fill="#d8c49a" opacity="0.1"/>
    <circle cx="306" cy="174" r="5" fill="#d8c49a" opacity="0.14"/>
    <circle cx="240" cy="64" r="2" fill="#d8c49a" opacity="0.18"/>
    <circle cx="174" cy="130" r="3" fill="#d8c49a" opacity="0.22"/>
    <circle cx="108" cy="196" r="4" fill="#d8c49a" opacity="0.1"/>
    <rect width="480" height="320" fill="#000" opacity="0.08" filter="url(#grain)"/>
    <path d="M22 292 C106 252 162 290 236 252 S368 240 458 206" fill="none" stroke="#d8c49a" stroke-width="7" stroke-linecap="round" stroke-opacity="0.12"/>
  </g>
</svg>
