<svg xmlns="http://www.w3.org/2000/svg" width="480" height="320" viewBox="0 0 480 320" role="img" aria-label="T-34 Tank Brigade card art">
  <defs>
    <linearGradient id="bg" x1="0" x2="1" y1="0" y2="1">
      <stop offset="0" stop-color="#551a1a"/>
      <stop offset="0.52" stop-color="#88402d"/>
      <stop offset="1" stop-color="#170d0d"/>
    </linearGradient>
    <radialGradient id="lamp" cx="45%" cy="21%" r="78%">
      <stop offset="0" stop-color="#d5c7a1" stop-opacity="0.68"/>
      <stop offset="0.46" stop-color="#d5c7a1" stop-opacity="0.16"/>
      <stop offset="1" stop-color="#d5c7a1" stop-opacity="0"/>
    </radialGradient>
    <linearGradient id="ground" x1="0" x2="1" y1="0" y2="0">
      <stop offset="0" stop-color="#070a0a" stop-opacity="0.82"/>
      <stop offset="0.5" stop-color="#170d0d" stop-opacity="0.58"/>
      <stop offset="1" stop-color="#070a0a" stop-opacity="0.88"/>
    </linearGradient>
    <filter id="grain">
      <feTurbulence baseFrequency="0.72" numOctaves="2" seed="83" type="fractalNoise"/>
      <feColorMatrix type="saturate" values="0"/>
      <feComponentTransfer>
        <feFuncA type="table" tableValues="0 0.18"/>
      </feComponentTransfer>
      <feBlend mode="overlay" in2="SourceGraphic"/>
    </filter>
    <clipPath id="round">
      <rect width="480" height="320" rx="18"/>
    </clipPath>
  </defs>
  <g clip-path="url(#round)">
    <rect width="480" height="320" fill="url(#bg)"/>
    <rect width="480" height="320" fill="url(#lamp)"/>
    <path d="M0 213 C80 163 132 191 224 209 S370 155 480 147 V320 H0 Z" fill="#0d0909" opacity="0.34"/>
    <path d="M0 238 C102 205 146 246 232 218 S380 194 480 172 V320 H0 Z" fill="url(#ground)"/>
    <path d="M42 230 L82 198 L122 238 L178 190 L244 226 L316 176 L418 230" fill="none" stroke="#0d0909" stroke-width="15" stroke-linejoin="round" stroke-opacity="0.42"/>
  <path d="M42 226 L82 194 L122 234 L178 186 L244 222 L316 172 L418 226" fill="none" stroke="#d5c7a1" stroke-width="4" stroke-linejoin="round" stroke-opacity="0.14"/>
    <path d="M52 78 H426 M86 112 H396 M72 146 H412 M104 180 H370 M128 214 H350" stroke="#d5c7a1" stroke-width="2" stroke-opacity="0.12"/>
    <g fill="#0d0909" stroke="#d5c7a1" stroke-opacity="0.28" stroke-width="5" stroke-linejoin="round">
    <path d="M104 245 H350 L386 275 H82 Z" opacity="0.86"/>
    <path d="M156 223 H258 L292 247 H130 Z" opacity="0.78"/>
    <path d="M250 231 L410 207" fill="none" stroke-width="9" stroke-linecap="round"/>
    <circle cx="132" cy="275" r="18"/><circle cx="186" cy="275" r="18"/><circle cx="240" cy="275" r="18"/><circle cx="294" cy="275" r="18"/>
    <path d="M78 287 H394" fill="none" stroke-width="12" stroke-linecap="round" opacity="0.55"/>
  </g>
    <circle cx="201" cy="177" r="5" fill="#d5c7a1" opacity="0.1"/>
    <circle cx="122" cy="204" r="2" fill="#d5c7a1" opacity="0.14"/>
    <circle cx="43" cy="55" r="3" fill="#d5c7a1" opacity="0.18"/>
    <circle cx="360" cy="82" r="4" fill="#d5c7a1" opacity="0.22"/>
    <circle cx="281" cy="109" r="5" fill="#d5c7a1" opacity="0.1"/>
    <circle cx="202" cy="136" r="2" fill="#d5c7a1" opacity="0.14"/>
    <circle cx="123" cy="163" r="3" fill="#d5c7a1" opacity="0.18"/>
    <circle cx="44" cy="190" r="4" fill="#d5c7a1" opacity="0.22"/>
    <circle cx="361" cy="217" r="5" fill="#d5c7a1" opacity="0.1"/>
    <rect width="480" height="320" fill="#000" opacity="0.08" filter="url(#grain)"/>
    <path d="M22 292 C106 252 162 290 236 252 S368 240 458 206" fill="none" stroke="#d5c7a1" stroke-width="7" stroke-linecap="round" stroke-opacity="0.12"/>
  </g>
</svg>
