<svg xmlns="http://www.w3.org/2000/svg" width="480" height="320" viewBox="0 0 480 320" role="img" aria-label="Winter Offensive card art">
  <defs>
    <linearGradient id="bg" x1="0" x2="1" y1="0" y2="1">
      <stop offset="0" stop-color="#551a1a"/>
      <stop offset="0.52" stop-color="#88402d"/>
      <stop offset="1" stop-color="#170d0d"/>
    </linearGradient>
    <radialGradient id="lamp" cx="26%" cy="34%" r="78%">
      <stop offset="0" stop-color="#d5c7a1" stop-opacity="0.68"/>
      <stop offset="0.46" stop-color="#d5c7a1" stop-opacity="0.16"/>
      <stop offset="1" stop-color="#d5c7a1" stop-opacity="0"/>
    </radialGradient>
    <linearGradient id="ground" x1="0" x2="1" y1="0" y2="0">
      <stop offset="0" stop-color="#070a0a" stop-opacity="0.82"/>
      <stop offset="0.5" stop-color="#170d0d" stop-opacity="0.58"/>
      <stop offset="1" stop-color="#070a0a" stop-opacity="0.88"/>
    </linearGradient>
    <filter id="grain">
      <feTurbulence baseFrequency="0.72" numOctaves="2" seed="39" type="fractalNoise"/>
      <feColorMatrix type="saturate" values="0"/>
      <feComponentTransfer>
        <feFuncA type="table" tableValues="0 0.18"/>
      </feComponentTransfer>
      <feBlend mode="overlay" in2="SourceGraphic"/>
    </filter>
    <clipPath id="round">
      <rect width="480" height="320" rx="18"/>
    </clipPath>
  </defs>
  <g clip-path="url(#round)">
    <rect width="480" height="320" fill="url(#bg)"/>
    <rect width="480" height="320" fill="url(#lamp)"/>
    <path d="M0 194 C80 162 132 204 224 208 S370 174 480 128 V320 H0 Z" fill="#0d0909" opacity="0.34"/>
    <path d="M0 238 C102 205 146 246 232 218 S380 194 480 172 V320 H0 Z" fill="url(#ground)"/>
    <path d="M0 212 C90 184 162 222 236 196 S382 176 480 190 V320 H0 Z" fill="#d6dfdc" opacity="0.2"/>
    <path d="M72 84 L80 104 M72 84 L60 100 M72 84 V62 M72 84 L92 78" stroke="#d5c7a1" stroke-width="4" stroke-opacity="0.28"/>
    <path d="M52 78 H426 M86 112 H396 M72 146 H412 M104 180 H370 M128 214 H350" stroke="#d5c7a1" stroke-width="2" stroke-opacity="0.12"/>
    <g fill="#0d0909" stroke="#d5c7a1" stroke-opacity="0.28" stroke-width="5" stroke-linecap="round" stroke-linejoin="round">
    <rect x="158" y="114" width="210" height="128" rx="12" opacity="0.72"/>
    <path d="M184 148 H338 M184 180 H308 M184 212 H324" opacity="0.68"/>
    <circle cx="324" cy="154" r="28" fill="none" stroke-width="7"/>
    <path d="M324 104 V204 M274 154 H374" opacity="0.72"/>
    <path d="M82 246 L168 210 L254 246 L336 198 L420 230" fill="none" stroke-width="7" stroke-opacity="0.16"/>
  </g>
    <circle cx="54" cy="190" r="2" fill="#d5c7a1" opacity="0.1"/>
    <circle cx="322" cy="114" r="3" fill="#d5c7a1" opacity="0.14"/>
    <circle cx="194" cy="214" r="4" fill="#d5c7a1" opacity="0.18"/>
    <circle cx="66" cy="138" r="5" fill="#d5c7a1" opacity="0.22"/>
    <circle cx="334" cy="62" r="2" fill="#d5c7a1" opacity="0.1"/>
    <circle cx="206" cy="162" r="3" fill="#d5c7a1" opacity="0.14"/>
    <circle cx="78" cy="86" r="4" fill="#d5c7a1" opacity="0.18"/>
    <circle cx="346" cy="186" r="5" fill="#d5c7a1" opacity="0.22"/>
    <circle cx="218" cy="110" r="2" fill="#d5c7a1" opacity="0.1"/>
    <rect width="480" height="320" fill="#000" opacity="0.08" filter="url(#grain)"/>
    <path d="M22 292 C106 252 162 290 236 252 S368 240 458 206" fill="none" stroke="#d5c7a1" stroke-width="7" stroke-linecap="round" stroke-opacity="0.12"/>
  </g>
</svg>
