<svg xmlns="http://www.w3.org/2000/svg" width="480" height="320" viewBox="0 0 480 320" role="img" aria-label="Conscript Squad card art">
  <defs>
    <linearGradient id="bg" x1="0" x2="1" y1="0" y2="1">
      <stop offset="0" stop-color="#26312b"/>
      <stop offset="0.52" stop-color="#6e6543"/>
      <stop offset="1" stop-color="#121715"/>
    </linearGradient>
    <radialGradient id="lamp" cx="58%" cy="30%" r="78%">
      <stop offset="0" stop-color="#e0c77d" stop-opacity="0.68"/>
      <stop offset="0.46" stop-color="#e0c77d" stop-opacity="0.16"/>
      <stop offset="1" stop-color="#e0c77d" stop-opacity="0"/>
    </radialGradient>
    <linearGradient id="ground" x1="0" x2="1" y1="0" y2="0">
      <stop offset="0" stop-color="#070a0a" stop-opacity="0.82"/>
      <stop offset="0.5" stop-color="#121715" stop-opacity="0.58"/>
      <stop offset="1" stop-color="#070a0a" stop-opacity="0.88"/>
    </linearGradient>
    <filter id="grain">
      <feTurbulence baseFrequency="0.72" numOctaves="2" seed="0" type="fractalNoise"/>
      <feColorMatrix type="saturate" values="0"/>
      <feComponentTransfer>
        <feFuncA type="table" tableValues="0 0.18"/>
      </feComponentTransfer>
      <feBlend mode="overlay" in2="SourceGraphic"/>
    </filter>
    <clipPath id="round">
      <rect width="480" height="320" rx="18"/>
    </clipPath>
  </defs>
  <g clip-path="url(#round)">
    <rect width="480" height="320" fill="url(#bg)"/>
    <rect width="480" height="320" fill="url(#lamp)"/>
    <path d="M0 194 C80 164 132 206 224 200 S370 152 480 160 V320 H0 Z" fill="#0b0f0e" opacity="0.34"/>
    <path d="M0 238 C102 205 146 246 232 218 S380 194 480 172 V320 H0 Z" fill="url(#ground)"/>
    <path d="M42 230 L82 198 L122 238 L178 190 L244 226 L316 176 L418 230" fill="none" stroke="#0b0f0e" stroke-width="15" stroke-linejoin="round" stroke-opacity="0.42"/>
  <path d="M42 226 L82 194 L122 234 L178 186 L244 222 L316 172 L418 226" fill="none" stroke="#e0c77d" stroke-width="4" stroke-linejoin="round" stroke-opacity="0.14"/>
    <path d="M52 78 H426 M86 112 H396 M72 146 H412 M104 180 H370 M128 214 H350" stroke="#e0c77d" stroke-width="2" stroke-opacity="0.12"/>
    <g fill="#0b0f0e" stroke="#e0c77d" stroke-opacity="0.25" stroke-width="5" stroke-linecap="round" stroke-linejoin="round">
    <circle cx="158" cy="132" r="18"/>
    <path d="M134 128 H182" fill="none"/>
    <path d="M158 150 L140 214 M158 150 L182 212" fill="none"/>
    <path d="M150 176 L230 144" fill="none" stroke-width="8"/>
    <circle cx="216" cy="116" r="18"/>
    <path d="M192 112 H240" fill="none"/>
    <path d="M216 134 L198 198 M216 134 L240 196" fill="none"/>
    <path d="M208 160 L288 128" fill="none" stroke-width="8"/>
    <circle cx="328" cy="142" r="18"/>
    <path d="M304 138 H352" fill="none"/>
    <path d="M328 160 L310 224 M328 160 L352 222" fill="none"/>
    <path d="M320 186 L400 154" fill="none" stroke-width="8"/>
    <path d="M104 238 C164 210 218 242 278 212 S374 200 430 226" fill="none" stroke="#e0c77d" stroke-width="5" stroke-opacity="0.16"/>
  </g>
    <circle cx="258" cy="110" r="2" fill="#e0c77d" opacity="0.1"/>
    <circle cx="66" cy="194" r="3" fill="#e0c77d" opacity="0.14"/>
    <circle cx="270" cy="102" r="4" fill="#e0c77d" opacity="0.18"/>
    <circle cx="78" cy="186" r="5" fill="#e0c77d" opacity="0.22"/>
    <circle cx="282" cy="94" r="2" fill="#e0c77d" opacity="0.1"/>
    <circle cx="90" cy="178" r="3" fill="#e0c77d" opacity="0.14"/>
    <circle cx="294" cy="86" r="4" fill="#e0c77d" opacity="0.18"/>
    <circle cx="102" cy="170" r="5" fill="#e0c77d" opacity="0.22"/>
    <circle cx="306" cy="78" r="2" fill="#e0c77d" opacity="0.1"/>
    <rect width="480" height="320" fill="#000" opacity="0.08" filter="url(#grain)"/>
    <path d="M22 292 C106 252 162 290 236 252 S368 240 458 206" fill="none" stroke="#e0c77d" stroke-width="7" stroke-linecap="round" stroke-opacity="0.12"/>
  </g>
</svg>
