<svg xmlns="http://www.w3.org/2000/svg" width="480" height="320" viewBox="0 0 480 320" role="img" aria-label="Desert Rats card art">
  <defs>
    <linearGradient id="bg" x1="0" x2="1" y1="0" y2="1">
      <stop offset="0" stop-color="#18314c"/>
      <stop offset="0.52" stop-color="#38617e"/>
      <stop offset="1" stop-color="#0e1822"/>
    </linearGradient>
    <radialGradient id="lamp" cx="30%" cy="30%" r="78%">
      <stop offset="0" stop-color="#b7c6d8" stop-opacity="0.68"/>
      <stop offset="0.46" stop-color="#b7c6d8" stop-opacity="0.16"/>
      <stop offset="1" stop-color="#b7c6d8" stop-opacity="0"/>
    </radialGradient>
    <linearGradient id="ground" x1="0" x2="1" y1="0" y2="0">
      <stop offset="0" stop-color="#070a0a" stop-opacity="0.82"/>
      <stop offset="0.5" stop-color="#0e1822" stop-opacity="0.58"/>
      <stop offset="1" stop-color="#070a0a" stop-opacity="0.88"/>
    </linearGradient>
    <filter id="grain">
      <feTurbulence baseFrequency="0.72" numOctaves="2" seed="54" type="fractalNoise"/>
      <feColorMatrix type="saturate" values="0"/>
      <feComponentTransfer>
        <feFuncA type="table" tableValues="0 0.18"/>
      </feComponentTransfer>
      <feBlend mode="overlay" in2="SourceGraphic"/>
    </filter>
    <clipPath id="round">
      <rect width="480" height="320" rx="18"/>
    </clipPath>
  </defs>
  <g clip-path="url(#round)">
    <rect width="480" height="320" fill="url(#bg)"/>
    <rect width="480" height="320" fill="url(#lamp)"/>
    <path d="M0 214 C80 166 132 188 224 188 S370 166 480 132 V320 H0 Z" fill="#091016" opacity="0.34"/>
    <path d="M0 238 C102 205 146 246 232 218 S380 194 480 172 V320 H0 Z" fill="url(#ground)"/>
    <path d="M0 226 C80 196 150 224 230 206 S384 182 480 196 V320 H0 Z" fill="#d9c078" opacity="0.24"/>
    <path d="M60 244 C130 226 188 250 256 232 S364 214 444 230" fill="none" stroke="#b7c6d8" stroke-width="6" stroke-opacity="0.16"/>
    <path d="M52 78 H426 M86 112 H396 M72 146 H412 M104 180 H370 M128 214 H350" stroke="#b7c6d8" stroke-width="2" stroke-opacity="0.12"/>
    <g fill="#091016" stroke="#b7c6d8" stroke-opacity="0.25" stroke-width="5" stroke-linecap="round" stroke-linejoin="round">
    <circle cx="150" cy="132" r="18"/>
    <path d="M126 128 H174" fill="none"/>
    <path d="M150 150 L132 214 M150 150 L174 212" fill="none"/>
    <path d="M142 176 L222 144" fill="none" stroke-width="8"/>
    <circle cx="224" cy="116" r="18"/>
    <path d="M200 112 H248" fill="none"/>
    <path d="M224 134 L206 198 M224 134 L248 196" fill="none"/>
    <path d="M216 160 L296 128" fill="none" stroke-width="8"/>
    <circle cx="324" cy="142" r="18"/>
    <path d="M300 138 H348" fill="none"/>
    <path d="M324 160 L306 224 M324 160 L348 222" fill="none"/>
    <path d="M316 186 L396 154" fill="none" stroke-width="8"/>
    <path d="M104 238 C164 210 218 242 278 212 S374 200 430 226" fill="none" stroke="#b7c6d8" stroke-width="5" stroke-opacity="0.16"/>
  </g>
    <circle cx="66" cy="162" r="2" fill="#b7c6d8" opacity="0.1"/>
    <circle cx="74" cy="186" r="3" fill="#b7c6d8" opacity="0.14"/>
    <circle cx="82" cy="210" r="4" fill="#b7c6d8" opacity="0.18"/>
    <circle cx="90" cy="58" r="5" fill="#b7c6d8" opacity="0.22"/>
    <circle cx="98" cy="82" r="2" fill="#b7c6d8" opacity="0.1"/>
    <circle cx="106" cy="106" r="3" fill="#b7c6d8" opacity="0.14"/>
    <circle cx="114" cy="130" r="4" fill="#b7c6d8" opacity="0.18"/>
    <circle cx="122" cy="154" r="5" fill="#b7c6d8" opacity="0.22"/>
    <circle cx="130" cy="178" r="2" fill="#b7c6d8" opacity="0.1"/>
    <rect width="480" height="320" fill="#000" opacity="0.08" filter="url(#grain)"/>
    <path d="M22 292 C106 252 162 290 236 252 S368 240 458 206" fill="none" stroke="#b7c6d8" stroke-width="7" stroke-linecap="round" stroke-opacity="0.12"/>
  </g>
</svg>
