<svg xmlns="http://www.w3.org/2000/svg" width="480" height="320" viewBox="0 0 480 320" role="img" aria-label="Home Guard Platoon card art">
  <defs>
    <linearGradient id="bg" x1="0" x2="1" y1="0" y2="1">
      <stop offset="0" stop-color="#18314c"/>
      <stop offset="0.52" stop-color="#38617e"/>
      <stop offset="1" stop-color="#0e1822"/>
    </linearGradient>
    <radialGradient id="lamp" cx="41%" cy="17%" r="78%">
      <stop offset="0" stop-color="#b7c6d8" stop-opacity="0.68"/>
      <stop offset="0.46" stop-color="#b7c6d8" stop-opacity="0.16"/>
      <stop offset="1" stop-color="#b7c6d8" stop-opacity="0"/>
    </radialGradient>
    <linearGradient id="ground" x1="0" x2="1" y1="0" y2="0">
      <stop offset="0" stop-color="#070a0a" stop-opacity="0.82"/>
      <stop offset="0.5" stop-color="#0e1822" stop-opacity="0.58"/>
      <stop offset="1" stop-color="#070a0a" stop-opacity="0.88"/>
    </linearGradient>
    <filter id="grain">
      <feTurbulence baseFrequency="0.72" numOctaves="2" seed="52" type="fractalNoise"/>
      <feColorMatrix type="saturate" values="0"/>
      <feComponentTransfer>
        <feFuncA type="table" tableValues="0 0.18"/>
      </feComponentTransfer>
      <feBlend mode="overlay" in2="SourceGraphic"/>
    </filter>
    <clipPath id="round">
      <rect width="480" height="320" rx="18"/>
    </clipPath>
  </defs>
  <g clip-path="url(#round)">
    <rect width="480" height="320" fill="url(#bg)"/>
    <rect width="480" height="320" fill="url(#lamp)"/>
    <path d="M0 193 C80 177 132 191 224 187 S370 163 480 143 V320 H0 Z" fill="#091016" opacity="0.34"/>
    <path d="M0 238 C102 205 146 246 232 218 S380 194 480 172 V320 H0 Z" fill="url(#ground)"/>
    <path d="M42 230 L82 198 L122 238 L178 190 L244 226 L316 176 L418 230" fill="none" stroke="#091016" stroke-width="15" stroke-linejoin="round" stroke-opacity="0.42"/>
  <path d="M42 226 L82 194 L122 234 L178 186 L244 222 L316 172 L418 226" fill="none" stroke="#b7c6d8" stroke-width="4" stroke-linejoin="round" stroke-opacity="0.14"/>
    <path d="M52 78 H426 M86 112 H396 M72 146 H412 M104 180 H370 M128 214 H350" stroke="#b7c6d8" stroke-width="2" stroke-opacity="0.12"/>
    <g fill="#091016" stroke="#b7c6d8" stroke-opacity="0.25" stroke-width="5" stroke-linecap="round" stroke-linejoin="round">
    <circle cx="161" cy="132" r="18"/>
    <path d="M137 128 H185" fill="none"/>
    <path d="M161 150 L143 214 M161 150 L185 212" fill="none"/>
    <path d="M153 176 L233 144" fill="none" stroke-width="8"/>
    <circle cx="213" cy="116" r="18"/>
    <path d="M189 112 H237" fill="none"/>
    <path d="M213 134 L195 198 M213 134 L237 196" fill="none"/>
    <path d="M205 160 L285 128" fill="none" stroke-width="8"/>
    <circle cx="329.5" cy="142" r="18"/>
    <path d="M305.5 138 H353.5" fill="none"/>
    <path d="M329.5 160 L311.5 224 M329.5 160 L353.5 222" fill="none"/>
    <path d="M321.5 186 L401.5 154" fill="none" stroke-width="8"/>
    <path d="M104 238 C164 210 218 242 278 212 S374 200 430 226" fill="none" stroke="#b7c6d8" stroke-width="5" stroke-opacity="0.16"/>
  </g>
    <circle cx="261" cy="125" r="5" fill="#b7c6d8" opacity="0.1"/>
    <circle cx="70" cy="212" r="2" fill="#b7c6d8" opacity="0.14"/>
    <circle cx="275" cy="123" r="3" fill="#b7c6d8" opacity="0.18"/>
    <circle cx="84" cy="210" r="4" fill="#b7c6d8" opacity="0.22"/>
    <circle cx="289" cy="121" r="5" fill="#b7c6d8" opacity="0.1"/>
    <circle cx="98" cy="208" r="2" fill="#b7c6d8" opacity="0.14"/>
    <circle cx="303" cy="119" r="3" fill="#b7c6d8" opacity="0.18"/>
    <circle cx="112" cy="206" r="4" fill="#b7c6d8" opacity="0.22"/>
    <circle cx="317" cy="117" r="5" fill="#b7c6d8" opacity="0.1"/>
    <rect width="480" height="320" fill="#000" opacity="0.08" filter="url(#grain)"/>
    <path d="M22 292 C106 252 162 290 236 252 S368 240 458 206" fill="none" stroke="#b7c6d8" stroke-width="7" stroke-linecap="round" stroke-opacity="0.12"/>
  </g>
</svg>
