<svg xmlns="http://www.w3.org/2000/svg" width="480" height="320" viewBox="0 0 480 320" role="img" aria-label="RAF Spitfire Wing placeholder art">
  <defs>
    <linearGradient id="bg" x1="0" x2="1" y1="0" y2="1">
      <stop offset="0" stop-color="#26312d"/>
      <stop offset="0.52" stop-color="#6b694b"/>
      <stop offset="1" stop-color="#111817"/>
    </linearGradient>
    <radialGradient id="lamp" cx="30%" cy="16%" r="70%">
      <stop offset="0" stop-color="#ead48a" stop-opacity="0.62"/>
      <stop offset="0.5" stop-color="#ead48a" stop-opacity="0.13"/>
      <stop offset="1" stop-color="#ead48a" stop-opacity="0"/>
    </radialGradient>
  </defs>
  <rect width="480" height="320" rx="18" fill="url(#bg)"/>
  <rect width="480" height="320" rx="18" fill="url(#lamp)"/>
  <path d="M42 210 C116 146 168 248 238 188 S358 170 430 116" fill="none" stroke="#f0ddb0" stroke-width="7" stroke-opacity="0.26"/>
  <path d="M58 74 H422 M82 110 H398 M96 146 H382 M72 182 H408 M116 218 H364" stroke="#f8e8bd" stroke-width="2" stroke-opacity="0.18"/>
  <path d="M106 246 L138 220 L170 250 L212 214 L270 244 L330 202 L386 238" fill="none" stroke="#101617" stroke-width="10" stroke-opacity="0.42"/>
  <circle cx="124" cy="108" r="27" fill="none" stroke="#e3c87e" stroke-width="5" stroke-opacity="0.55"/>
  <path d="M124 74 V142 M90 108 H158 M106 90 L142 126 M142 90 L106 126" stroke="#e3c87e" stroke-width="4" stroke-opacity="0.55"/>
  <rect x="256" y="78" width="142" height="72" rx="8" fill="#0b1112" fill-opacity="0.34" stroke="#ead48a" stroke-opacity="0.24"/>
  <path d="M278 126 H374 M278 104 H350" stroke="#ead48a" stroke-width="5" stroke-linecap="round" stroke-opacity="0.4"/>
  <text x="240" y="284" text-anchor="middle" font-family="Arial, sans-serif" font-size="22" font-weight="700" fill="#f3e3b4" opacity="0.92">RAF Spitfire Wing</text>
  <text x="34" y="42" font-family="Arial, sans-serif" font-size="20" font-weight="700" fill="#f3e3b4" opacity="0.92">UNIT</text>
  <text x="446" y="42" text-anchor="end" font-family="Arial, sans-serif" font-size="20" font-weight="700" fill="#f3e3b4" opacity="0.92">3/2</text>
  <text x="240" y="64" text-anchor="middle" font-family="Arial, sans-serif" font-size="16" font-weight="700" fill="#d7c28a" opacity="0.82">Aircraft</text>
</svg>
