<svg xmlns="http://www.w3.org/2000/svg" width="480" height="320" viewBox="0 0 480 320" role="img" aria-label="RAF Spitfire Wing card art">
  <defs>
    <linearGradient id="bg" x1="0" x2="1" y1="0" y2="1">
      <stop offset="0" stop-color="#18314c"/>
      <stop offset="0.52" stop-color="#38617e"/>
      <stop offset="1" stop-color="#0e1822"/>
    </linearGradient>
    <radialGradient id="lamp" cx="68%" cy="28%" r="78%">
      <stop offset="0" stop-color="#b7c6d8" stop-opacity="0.68"/>
      <stop offset="0.46" stop-color="#b7c6d8" stop-opacity="0.16"/>
      <stop offset="1" stop-color="#b7c6d8" stop-opacity="0"/>
    </radialGradient>
    <linearGradient id="ground" x1="0" x2="1" y1="0" y2="0">
      <stop offset="0" stop-color="#070a0a" stop-opacity="0.82"/>
      <stop offset="0.5" stop-color="#0e1822" stop-opacity="0.58"/>
      <stop offset="1" stop-color="#070a0a" stop-opacity="0.88"/>
    </linearGradient>
    <filter id="grain">
      <feTurbulence baseFrequency="0.72" numOctaves="2" seed="6" type="fractalNoise"/>
      <feColorMatrix type="saturate" values="0"/>
      <feComponentTransfer>
        <feFuncA type="table" tableValues="0 0.18"/>
      </feComponentTransfer>
      <feBlend mode="overlay" in2="SourceGraphic"/>
    </filter>
    <clipPath id="round">
      <rect width="480" height="320" rx="18"/>
    </clipPath>
  </defs>
  <g clip-path="url(#round)">
    <rect width="480" height="320" fill="url(#bg)"/>
    <rect width="480" height="320" fill="url(#lamp)"/>
    <path d="M0 220 C80 174 132 188 224 184 S370 174 480 170 V320 H0 Z" fill="#091016" opacity="0.34"/>
    <path d="M0 238 C102 205 146 246 232 218 S380 194 480 172 V320 H0 Z" fill="url(#ground)"/>
    <path d="M42 230 L82 198 L122 238 L178 190 L244 226 L316 176 L418 230" fill="none" stroke="#091016" stroke-width="15" stroke-linejoin="round" stroke-opacity="0.42"/>
  <path d="M42 226 L82 194 L122 234 L178 186 L244 222 L316 172 L418 226" fill="none" stroke="#b7c6d8" stroke-width="4" stroke-linejoin="round" stroke-opacity="0.14"/>
    <path d="M52 78 H426 M86 112 H396 M72 146 H412 M104 180 H370 M128 214 H350" stroke="#b7c6d8" stroke-width="2" stroke-opacity="0.12"/>
    <g fill="#091016" stroke="#b7c6d8" stroke-opacity="0.32" stroke-width="4" stroke-linecap="round" stroke-linejoin="round">
    <path d="M222 124 L366 160 L252 176 L116 160 Z" fill="#091016" opacity="0.74"/>
    <path d="M227 110 L250 232 L220 246 L196 232 Z" fill="#091016" opacity="0.82"/>
    <path d="M170 184 L114 220 M284 184 L348 220" opacity="0.42"/>
    <path d="M64 74 L112 88 L72 102 Z M354 74 L420 92 L366 106 Z" fill="#091016" opacity="0.44" stroke="none"/>
  </g>
    <circle cx="108" cy="152" r="4" fill="#b7c6d8" opacity="0.1"/>
    <circle cx="394" cy="174" r="5" fill="#b7c6d8" opacity="0.14"/>
    <circle cx="284" cy="196" r="2" fill="#b7c6d8" opacity="0.18"/>
    <circle cx="174" cy="42" r="3" fill="#b7c6d8" opacity="0.22"/>
    <circle cx="64" cy="64" r="4" fill="#b7c6d8" opacity="0.1"/>
    <circle cx="350" cy="86" r="5" fill="#b7c6d8" opacity="0.14"/>
    <circle cx="240" cy="108" r="2" fill="#b7c6d8" opacity="0.18"/>
    <circle cx="130" cy="130" r="3" fill="#b7c6d8" opacity="0.22"/>
    <circle cx="416" cy="152" r="4" fill="#b7c6d8" opacity="0.1"/>
    <rect width="480" height="320" fill="#000" opacity="0.08" filter="url(#grain)"/>
    <path d="M22 292 C106 252 162 290 236 252 S368 240 458 206" fill="none" stroke="#b7c6d8" stroke-width="7" stroke-linecap="round" stroke-opacity="0.12"/>
  </g>
</svg>
