<svg xmlns="http://www.w3.org/2000/svg" width="480" height="320" viewBox="0 0 480 320" role="img" aria-label="Iowa Battleship card art">
  <defs>
    <linearGradient id="bg" x1="0" x2="1" y1="0" y2="1">
      <stop offset="0" stop-color="#1b3858"/>
      <stop offset="0.52" stop-color="#546b76"/>
      <stop offset="1" stop-color="#101820"/>
    </linearGradient>
    <radialGradient id="lamp" cx="65%" cy="25%" r="78%">
      <stop offset="0" stop-color="#c8ad68" stop-opacity="0.68"/>
      <stop offset="0.46" stop-color="#c8ad68" stop-opacity="0.16"/>
      <stop offset="1" stop-color="#c8ad68" stop-opacity="0"/>
    </radialGradient>
    <linearGradient id="ground" x1="0" x2="1" y1="0" y2="0">
      <stop offset="0" stop-color="#070a0a" stop-opacity="0.82"/>
      <stop offset="0.5" stop-color="#101820" stop-opacity="0.58"/>
      <stop offset="1" stop-color="#070a0a" stop-opacity="0.88"/>
    </linearGradient>
    <filter id="grain">
      <feTurbulence baseFrequency="0.72" numOctaves="2" seed="39" type="fractalNoise"/>
      <feColorMatrix type="saturate" values="0"/>
      <feComponentTransfer>
        <feFuncA type="table" tableValues="0 0.18"/>
      </feComponentTransfer>
      <feBlend mode="overlay" in2="SourceGraphic"/>
    </filter>
    <clipPath id="round">
      <rect width="480" height="320" rx="18"/>
    </clipPath>
  </defs>
  <g clip-path="url(#round)">
    <rect width="480" height="320" fill="url(#bg)"/>
    <rect width="480" height="320" fill="url(#lamp)"/>
    <path d="M0 201 C80 159 132 189 224 203 S370 159 480 167 V320 H0 Z" fill="#091016" opacity="0.34"/>
    <path d="M0 238 C102 205 146 246 232 218 S380 194 480 172 V320 H0 Z" fill="url(#ground)"/>
    <path d="M0 208 C86 188 130 226 214 206 S348 180 480 204 V320 H0 Z" fill="#1e3f50" opacity="0.38"/>
    <path d="M30 230 C96 212 142 240 206 224 S334 204 448 226" fill="none" stroke="#c8ad68" stroke-width="4" stroke-opacity="0.18"/>
    <path d="M52 78 H426 M86 112 H396 M72 146 H412 M104 180 H370 M128 214 H350" stroke="#c8ad68" stroke-width="2" stroke-opacity="0.12"/>
    <g fill="#091016" stroke="#c8ad68" stroke-opacity="0.28" stroke-width="5" stroke-linejoin="round">
    <path d="M72 263 H372 L420 231 L392 289 H112 Z" opacity="0.84"/>
    <path d="M164 223 H260 L286 259 H140 Z" opacity="0.7"/>
    <path d="M242 231 L380 207 M214 227 L88 209" fill="none" stroke-width="8" stroke-linecap="round"/>
    <path d="M120 301 C190 277 258 319 340 289" fill="none" stroke-width="7" stroke-opacity="0.22"/>
  </g>
    <circle cx="45" cy="101" r="5" fill="#c8ad68" opacity="0.1"/>
    <circle cx="178" cy="148" r="2" fill="#c8ad68" opacity="0.14"/>
    <circle cx="311" cy="195" r="3" fill="#c8ad68" opacity="0.18"/>
    <circle cx="48" cy="66" r="4" fill="#c8ad68" opacity="0.22"/>
    <circle cx="181" cy="113" r="5" fill="#c8ad68" opacity="0.1"/>
    <circle cx="314" cy="160" r="2" fill="#c8ad68" opacity="0.14"/>
    <circle cx="51" cy="207" r="3" fill="#c8ad68" opacity="0.18"/>
    <circle cx="184" cy="78" r="4" fill="#c8ad68" opacity="0.22"/>
    <circle cx="317" cy="125" r="5" fill="#c8ad68" opacity="0.1"/>
    <rect width="480" height="320" fill="#000" opacity="0.08" filter="url(#grain)"/>
    <path d="M22 292 C106 252 162 290 236 252 S368 240 458 206" fill="none" stroke="#c8ad68" stroke-width="7" stroke-linecap="round" stroke-opacity="0.12"/>
  </g>
</svg>
