<svg xmlns="http://www.w3.org/2000/svg" width="480" height="320" viewBox="0 0 480 320" role="img" aria-label="Industrial Mobilization card art">
  <defs>
    <linearGradient id="bg" x1="0" x2="1" y1="0" y2="1">
      <stop offset="0" stop-color="#1b3858"/>
      <stop offset="0.52" stop-color="#546b76"/>
      <stop offset="1" stop-color="#101820"/>
    </linearGradient>
    <radialGradient id="lamp" cx="25%" cy="21%" r="78%">
      <stop offset="0" stop-color="#c8ad68" stop-opacity="0.68"/>
      <stop offset="0.46" stop-color="#c8ad68" stop-opacity="0.16"/>
      <stop offset="1" stop-color="#c8ad68" stop-opacity="0"/>
    </radialGradient>
    <linearGradient id="ground" x1="0" x2="1" y1="0" y2="0">
      <stop offset="0" stop-color="#070a0a" stop-opacity="0.82"/>
      <stop offset="0.5" stop-color="#101820" stop-opacity="0.58"/>
      <stop offset="1" stop-color="#070a0a" stop-opacity="0.88"/>
    </linearGradient>
    <filter id="grain">
      <feTurbulence baseFrequency="0.72" numOctaves="2" seed="76" type="fractalNoise"/>
      <feColorMatrix type="saturate" values="0"/>
      <feComponentTransfer>
        <feFuncA type="table" tableValues="0 0.18"/>
      </feComponentTransfer>
      <feBlend mode="overlay" in2="SourceGraphic"/>
    </filter>
    <clipPath id="round">
      <rect width="480" height="320" rx="18"/>
    </clipPath>
  </defs>
  <g clip-path="url(#round)">
    <rect width="480" height="320" fill="url(#bg)"/>
    <rect width="480" height="320" fill="url(#lamp)"/>
    <path d="M0 193 C80 179 132 195 224 205 S370 173 480 127 V320 H0 Z" fill="#091016" opacity="0.34"/>
    <path d="M0 238 C102 205 146 246 232 218 S380 194 480 172 V320 H0 Z" fill="url(#ground)"/>
    <path d="M42 230 L82 198 L122 238 L178 190 L244 226 L316 176 L418 230" fill="none" stroke="#091016" stroke-width="15" stroke-linejoin="round" stroke-opacity="0.42"/>
  <path d="M42 226 L82 194 L122 234 L178 186 L244 222 L316 172 L418 226" fill="none" stroke="#c8ad68" stroke-width="4" stroke-linejoin="round" stroke-opacity="0.14"/>
    <path d="M52 78 H426 M86 112 H396 M72 146 H412 M104 180 H370 M128 214 H350" stroke="#c8ad68" stroke-width="2" stroke-opacity="0.12"/>
    <g fill="#091016" stroke="#c8ad68" stroke-opacity="0.28" stroke-width="5" stroke-linecap="round" stroke-linejoin="round">
    <rect x="145" y="114" width="210" height="128" rx="12" opacity="0.72"/>
    <path d="M171 148 H325 M171 180 H295 M171 212 H311" opacity="0.68"/>
    <circle cx="311" cy="154" r="28" fill="none" stroke-width="7"/>
    <path d="M311 104 V204 M261 154 H361" opacity="0.72"/>
    <path d="M82 246 L168 210 L254 246 L336 198 L420 230" fill="none" stroke-width="7" stroke-opacity="0.16"/>
  </g>
    <circle cx="393" cy="125" r="5" fill="#c8ad68" opacity="0.1"/>
    <circle cx="246" cy="212" r="2" fill="#c8ad68" opacity="0.14"/>
    <circle cx="99" cy="123" r="3" fill="#c8ad68" opacity="0.18"/>
    <circle cx="348" cy="210" r="4" fill="#c8ad68" opacity="0.22"/>
    <circle cx="201" cy="121" r="5" fill="#c8ad68" opacity="0.1"/>
    <circle cx="54" cy="208" r="2" fill="#c8ad68" opacity="0.14"/>
    <circle cx="303" cy="119" r="3" fill="#c8ad68" opacity="0.18"/>
    <circle cx="156" cy="206" r="4" fill="#c8ad68" opacity="0.22"/>
    <circle cx="405" cy="117" r="5" fill="#c8ad68" opacity="0.1"/>
    <rect width="480" height="320" fill="#000" opacity="0.08" filter="url(#grain)"/>
    <path d="M22 292 C106 252 162 290 236 252 S368 240 458 206" fill="none" stroke="#c8ad68" stroke-width="7" stroke-linecap="round" stroke-opacity="0.12"/>
  </g>
</svg>
