<svg xmlns="http://www.w3.org/2000/svg" width="480" height="320" viewBox="0 0 480 320" role="img" aria-label="P-51 Mustang Escort card art">
  <defs>
    <linearGradient id="bg" x1="0" x2="1" y1="0" y2="1">
      <stop offset="0" stop-color="#1b3858"/>
      <stop offset="0.52" stop-color="#546b76"/>
      <stop offset="1" stop-color="#101820"/>
    </linearGradient>
    <radialGradient id="lamp" cx="42%" cy="22%" r="78%">
      <stop offset="0" stop-color="#c8ad68" stop-opacity="0.68"/>
      <stop offset="0.46" stop-color="#c8ad68" stop-opacity="0.16"/>
      <stop offset="1" stop-color="#c8ad68" stop-opacity="0"/>
    </radialGradient>
    <linearGradient id="ground" x1="0" x2="1" y1="0" y2="0">
      <stop offset="0" stop-color="#070a0a" stop-opacity="0.82"/>
      <stop offset="0.5" stop-color="#101820" stop-opacity="0.58"/>
      <stop offset="1" stop-color="#070a0a" stop-opacity="0.88"/>
    </linearGradient>
    <filter id="grain">
      <feTurbulence baseFrequency="0.72" numOctaves="2" seed="17" type="fractalNoise"/>
      <feColorMatrix type="saturate" values="0"/>
      <feComponentTransfer>
        <feFuncA type="table" tableValues="0 0.18"/>
      </feComponentTransfer>
      <feBlend mode="overlay" in2="SourceGraphic"/>
    </filter>
    <clipPath id="round">
      <rect width="480" height="320" rx="18"/>
    </clipPath>
  </defs>
  <g clip-path="url(#round)">
    <rect width="480" height="320" fill="url(#bg)"/>
    <rect width="480" height="320" fill="url(#lamp)"/>
    <path d="M0 210 C80 160 132 184 224 208 S370 170 480 144 V320 H0 Z" fill="#091016" opacity="0.34"/>
    <path d="M0 238 C102 205 146 246 232 218 S380 194 480 172 V320 H0 Z" fill="url(#ground)"/>
    <path d="M42 230 L82 198 L122 238 L178 190 L244 226 L316 176 L418 230" fill="none" stroke="#091016" stroke-width="15" stroke-linejoin="round" stroke-opacity="0.42"/>
  <path d="M42 226 L82 194 L122 234 L178 186 L244 222 L316 172 L418 226" fill="none" stroke="#c8ad68" stroke-width="4" stroke-linejoin="round" stroke-opacity="0.14"/>
    <path d="M52 78 H426 M86 112 H396 M72 146 H412 M104 180 H370 M128 214 H350" stroke="#c8ad68" stroke-width="2" stroke-opacity="0.12"/>
    <g fill="#091016" stroke="#c8ad68" stroke-opacity="0.32" stroke-width="4" stroke-linecap="round" stroke-linejoin="round">
    <path d="M252 124 L396 160 L282 176 L146 160 Z" fill="#091016" opacity="0.74"/>
    <path d="M257 110 L280 232 L250 246 L226 232 Z" fill="#091016" opacity="0.82"/>
    <path d="M200 184 L144 220 M314 184 L378 220" opacity="0.42"/>
    <path d="M64 74 L112 88 L72 102 Z M354 74 L420 92 L366 106 Z" fill="#091016" opacity="0.44" stroke="none"/>
  </g>
    <circle cx="282" cy="142" r="2" fill="#c8ad68" opacity="0.1"/>
    <circle cx="230" cy="162" r="3" fill="#c8ad68" opacity="0.14"/>
    <circle cx="178" cy="182" r="4" fill="#c8ad68" opacity="0.18"/>
    <circle cx="126" cy="202" r="5" fill="#c8ad68" opacity="0.22"/>
    <circle cx="74" cy="46" r="2" fill="#c8ad68" opacity="0.1"/>
    <circle cx="418" cy="66" r="3" fill="#c8ad68" opacity="0.14"/>
    <circle cx="366" cy="86" r="4" fill="#c8ad68" opacity="0.18"/>
    <circle cx="314" cy="106" r="5" fill="#c8ad68" opacity="0.22"/>
    <circle cx="262" cy="126" r="2" fill="#c8ad68" opacity="0.1"/>
    <rect width="480" height="320" fill="#000" opacity="0.08" filter="url(#grain)"/>
    <path d="M22 292 C106 252 162 290 236 252 S368 240 458 206" fill="none" stroke="#c8ad68" stroke-width="7" stroke-linecap="round" stroke-opacity="0.12"/>
  </g>
</svg>
